<svg width="132" height="44" viewBox="0 0 132 44" fill="none" xmlns="http://www.w3.org/2000/svg">
<path d="M11.6337 0.976562V1.16213L10.8629 1.3477V9.56983L11.6337 9.7554V9.94097H7.97946V9.7554L8.7503 9.56983V2.56104L5.7241 10.0694H5.33866L1.41317 2.56104V9.36999L2.44093 9.7554V9.94097H0V9.7554L1.02777 9.36999V1.3477L0.256931 1.16213V0.976562H1.85567C2.09834 0.976562 2.31246 1.00511 2.48376 1.06221C2.65505 1.11931 2.82637 1.19068 2.95484 1.2906C3.09758 1.39052 3.21178 1.50472 3.3117 1.63319C3.41162 1.76166 3.49728 1.91868 3.58292 2.0757L6.38072 7.42865L8.5219 2.0757C8.59327 1.89013 8.66466 1.73311 8.76459 1.60464C8.85023 1.47617 8.9644 1.36198 9.09287 1.26205C9.22134 1.16213 9.37839 1.09076 9.56396 1.04793C9.74953 1.00511 9.9779 0.976562 10.2634 0.976562H11.6337Z" fill="#292F36"/>
<path d="M16.2016 3.3605C16.7297 3.3605 17.2151 3.43187 17.629 3.58889C18.043 3.74591 18.3999 3.9743 18.6996 4.25979C18.9994 4.55956 19.2135 4.91642 19.3705 5.33038C19.5276 5.74434 19.5989 6.22968 19.5989 6.75783C19.5989 7.28599 19.5276 7.77133 19.3705 8.18529C19.2135 8.59925 18.9851 8.95611 18.6996 9.25588C18.3999 9.55564 18.043 9.76976 17.629 9.92678C17.2151 10.0838 16.7297 10.1552 16.2016 10.1552C15.6734 10.1552 15.1881 10.0838 14.7741 9.92678C14.3602 9.76976 14.0033 9.54137 13.7035 9.25588C13.4038 8.95611 13.1897 8.59925 13.0326 8.18529C12.8756 7.77133 12.8042 7.28599 12.8042 6.75783C12.8042 6.22968 12.8756 5.74434 13.0326 5.33038C13.1897 4.91642 13.418 4.55956 13.7035 4.25979C14.0033 3.96002 14.3602 3.74591 14.7741 3.58889C15.1881 3.43187 15.6592 3.3605 16.2016 3.3605ZM16.2016 9.91251C16.3443 9.91251 16.4871 9.86968 16.6441 9.76976C16.7868 9.66984 16.9153 9.51282 17.0295 9.27015C17.1437 9.02748 17.2436 8.71344 17.315 8.31376C17.3864 7.8998 17.4292 7.38591 17.4292 6.77211C17.4292 6.14403 17.3864 5.63015 17.315 5.23046C17.2436 4.83077 17.1437 4.50246 17.0295 4.27406C16.9153 4.04567 16.7868 3.87438 16.6441 3.77446C16.5013 3.67454 16.3586 3.63171 16.2016 3.63171C16.0588 3.63171 15.9161 3.67454 15.7591 3.77446C15.6163 3.87438 15.4878 4.0314 15.3736 4.27406C15.2594 4.51673 15.1595 4.83077 15.0882 5.23046C15.0168 5.64442 14.974 6.1583 14.974 6.77211C14.974 7.40019 15.0168 7.91407 15.0882 8.31376C15.1595 8.71344 15.2594 9.04176 15.3736 9.27015C15.4878 9.49854 15.6163 9.66984 15.7591 9.76976C15.9018 9.85541 16.0446 9.91251 16.2016 9.91251Z" fill="#292F36"/>
<path d="M25.8369 0.976585C26.6077 0.976585 26.9931 1.362 26.9931 2.13282V9.58413L27.764 9.7697V9.95527H26.6077C26.2937 9.95527 26.051 9.91245 25.8654 9.81252C25.6799 9.7126 25.5228 9.5984 25.4229 9.48421C25.2944 9.34146 25.1946 9.17017 25.1375 8.99887C25.0233 9.22727 24.8805 9.41284 24.7092 9.58413C24.5664 9.72688 24.3666 9.85535 24.1239 9.98382C23.8813 10.1123 23.5958 10.1694 23.2675 10.1694C22.8963 10.1694 22.5537 10.098 22.2397 9.95527C21.9114 9.81252 21.6402 9.5984 21.4118 9.31291C21.1834 9.02742 20.9836 8.67056 20.8551 8.2566C20.7124 7.82836 20.6552 7.34303 20.6552 6.77205C20.6552 6.20106 20.7266 5.71573 20.8551 5.2875C20.9978 4.85926 21.1834 4.51667 21.4403 4.23118C21.683 3.94569 21.9828 3.73157 22.3254 3.58882C22.668 3.44608 23.0534 3.37471 23.4816 3.37471C23.71 3.37471 23.9098 3.40326 24.0954 3.44608C24.281 3.50318 24.438 3.56028 24.5664 3.63165C24.7235 3.70302 24.8519 3.78867 24.9661 3.88859V1.39055L24.1953 1.20498V1.01941H25.8369V0.976585ZM24.9376 4.25973C24.8377 4.15981 24.752 4.07416 24.6378 4.00279C24.5379 3.93141 24.438 3.87432 24.3238 3.81722C24.2096 3.76012 24.0954 3.74585 23.9669 3.74585C23.8099 3.74585 23.6529 3.78867 23.5101 3.87432C23.3674 3.95996 23.2532 4.10271 23.139 4.31683C23.0391 4.53094 22.9534 4.84498 22.8963 5.2304C22.8392 5.63008 22.8107 6.12969 22.8107 6.75777C22.8107 7.37158 22.8392 7.85691 22.8963 8.24232C22.9534 8.62774 23.0248 8.9275 23.1247 9.14162C23.2104 9.35574 23.3103 9.51276 23.4388 9.58413C23.553 9.6555 23.6672 9.69833 23.7814 9.69833C23.9812 9.69833 24.1525 9.64123 24.2952 9.54131C24.438 9.44138 24.5522 9.31291 24.6521 9.18444C24.7663 9.02742 24.8662 8.85613 24.9519 8.67056V4.25973H24.9376Z" fill="#292F36"/>
<path d="M32.0606 10.1695C30.9614 10.1695 30.105 9.8697 29.5055 9.27017C28.8917 8.67064 28.5919 7.82844 28.5919 6.77212C28.5919 6.24396 28.6632 5.75863 28.8203 5.34467C28.9773 4.93071 29.1914 4.57384 29.4626 4.27408C29.7339 3.97431 30.0621 3.7602 30.4618 3.60318C30.8472 3.44616 31.2755 3.37478 31.7465 3.37478C32.2319 3.37478 32.6601 3.44616 33.0313 3.57463C33.4167 3.71737 33.7307 3.90294 34.0019 4.13133C34.2731 4.35973 34.473 4.63094 34.6157 4.94498C34.7585 5.25902 34.8298 5.58734 34.8298 5.9442C34.8298 6.05839 34.8299 6.17259 34.8156 6.25824C34.8013 6.34389 34.787 6.42953 34.7728 6.50091C34.7442 6.58655 34.7299 6.65793 34.7014 6.71502C34.3302 6.7864 33.9305 6.85777 33.5023 6.90059C33.1454 6.95769 32.7315 7.00051 32.2604 7.02906C31.7894 7.05761 31.304 7.08616 30.7902 7.08616C30.7902 7.61432 30.833 8.05683 30.9043 8.4137C30.9757 8.77056 31.0899 9.05605 31.2184 9.25589C31.3611 9.47001 31.5181 9.61276 31.7037 9.6984C31.8893 9.78405 32.1034 9.82687 32.3175 9.82687C32.5745 9.82687 32.8171 9.78405 33.0455 9.68413C33.2739 9.58421 33.4738 9.47001 33.6308 9.31299C33.8021 9.15597 33.9305 8.9704 34.0305 8.77056C34.1304 8.57072 34.1732 8.37087 34.1732 8.15675H34.4873C34.4873 8.4137 34.4302 8.65636 34.316 8.89903C34.2018 9.14169 34.0305 9.35581 33.8164 9.54138C33.6022 9.72695 33.3453 9.8697 33.0455 9.98389C32.76 10.1124 32.4317 10.1695 32.0606 10.1695ZM30.7759 6.75785C31.0614 6.75785 31.3183 6.75785 31.5467 6.74357C31.7751 6.7293 31.9607 6.71502 32.1177 6.70075C32.3032 6.68648 32.446 6.65793 32.5745 6.64365C32.5888 6.558 32.6173 6.45808 32.6316 6.35816C32.6459 6.25824 32.6601 6.15832 32.6744 6.04412C32.6887 5.92992 32.6887 5.80146 32.6887 5.67298C32.6887 5.28757 32.6601 4.95926 32.603 4.70232C32.5459 4.44537 32.4745 4.23126 32.3746 4.05996C32.289 3.90294 32.189 3.77447 32.0606 3.71737C31.9321 3.66027 31.8322 3.61745 31.718 3.61745C31.6038 3.61745 31.4896 3.66027 31.3754 3.74592C31.2612 3.83157 31.1613 3.98859 31.0614 4.20271C30.9757 4.4311 30.8901 4.74514 30.833 5.1591C30.7759 5.57306 30.7759 6.10122 30.7759 6.75785Z" fill="#292F36"/>
<path d="M40.2256 3.80296C39.9687 3.80296 39.7403 3.86005 39.5405 3.95998C39.3406 4.0599 39.1693 4.18837 39.0266 4.31684C38.8695 4.47386 38.741 4.64516 38.6126 4.83072V9.58414L39.3834 9.76971V9.95528H35.7862V9.76971L36.5571 9.58414V3.93143L35.7862 3.74586V3.56029H36.9425C37.2422 3.56029 37.4849 3.61739 37.6847 3.71731C37.8703 3.81723 38.0273 3.93143 38.1415 4.04562C38.27 4.18837 38.3699 4.34539 38.427 4.51668C38.5555 4.33111 38.7125 4.15982 38.8981 4.0028C39.0551 3.87433 39.255 3.76013 39.4976 3.64594C39.7403 3.53174 40.0115 3.48892 40.3398 3.48892C40.7966 3.48892 41.1392 3.60311 41.3676 3.80296C41.596 4.01707 41.6959 4.31684 41.6959 4.70225C41.6959 4.98774 41.6102 5.23041 41.4389 5.40171C41.2677 5.573 41.025 5.65865 40.7395 5.65865C40.6681 5.65865 40.611 5.65865 40.5396 5.65865C40.4683 5.65865 40.4255 5.64437 40.3826 5.64437C40.3256 5.6301 40.2684 5.6301 40.2256 5.60155V3.80296Z" fill="#292F36"/>
<path d="M47.2201 5.47311C47.2201 5.18762 47.1916 4.93068 47.1345 4.71656C47.0774 4.50245 47.006 4.33115 46.9061 4.20268C46.8205 4.05993 46.7206 3.96001 46.5921 3.90291C46.4779 3.84581 46.3637 3.80299 46.2495 3.80299C46.0496 3.80299 45.8783 3.86009 45.7356 3.96001C45.5929 4.05993 45.4644 4.1884 45.3787 4.31688C45.2645 4.4739 45.1789 4.64519 45.0932 4.83076V9.58418L45.8641 9.76975V9.95532H42.2669V9.76975L43.0377 9.58418V3.93146L42.2669 3.74589V3.56032H43.4231C43.7229 3.56032 43.9655 3.61742 44.1654 3.71734C44.351 3.81727 44.508 3.93146 44.6222 4.04566C44.7507 4.1884 44.8506 4.34542 44.9077 4.51672C45.0219 4.3026 45.1646 4.10276 45.3359 3.93146C45.4787 3.78872 45.6785 3.66025 45.9069 3.53178C46.1353 3.40331 46.435 3.34621 46.7776 3.34621C47.1488 3.34621 47.4914 3.40331 47.7911 3.53178C48.1052 3.64597 48.3621 3.81727 48.5762 4.00284C48.7903 4.20268 48.9617 4.4168 49.0901 4.67374C49.2186 4.93068 49.2757 5.18762 49.2757 5.45884V9.56991L50.0465 9.75547V9.94104H48.3764C47.6056 9.94104 47.2201 9.55563 47.2201 8.7848V5.47311Z" fill="#292F36"/>
<path d="M1.35607 18.9768V18.4486H11.2769V18.9768L9.19278 19.5049V30.2822H16.6726V19.5049L14.5886 18.9768V18.4486H24.5094V18.9768L22.4253 19.5049V41.7732L24.5094 42.3014V42.8295H14.5886V42.2871L16.6726 41.7589V31.1529H9.19278V41.7589L11.2769 42.2871V42.8152H1.35607V42.2871L3.44014 41.7589V19.4906L1.35607 18.9768Z" fill="#292F36"/>
<path d="M36.8425 24.8864C38.2843 24.8864 39.569 25.1005 40.7109 25.5145C41.8529 25.9285 42.8093 26.5423 43.6087 27.3417C44.408 28.141 45.0218 29.1117 45.4358 30.2537C45.8498 31.3956 46.0639 32.6803 46.0639 34.1221C46.0639 35.5638 45.8498 36.8485 45.4358 37.9905C45.0218 39.1324 44.408 40.0888 43.6087 40.8882C42.8093 41.6876 41.8386 42.3014 40.7109 42.7153C39.569 43.1293 38.2843 43.3434 36.8425 43.3434C35.4008 43.3434 34.1161 43.1293 32.9742 42.7153C31.8322 42.3014 30.8758 41.6876 30.0764 40.8882C29.2771 40.0888 28.6633 39.1181 28.2493 37.9905C27.8353 36.8485 27.6212 35.5638 27.6212 34.1221C27.6212 32.6803 27.8353 31.3956 28.2493 30.2537C28.6633 29.1117 29.2771 28.1553 30.0764 27.3417C30.8758 26.528 31.8465 25.9285 32.9742 25.5145C34.1161 25.1005 35.4008 24.8864 36.8425 24.8864ZM36.8425 42.6297C37.2422 42.6297 37.6277 42.5012 38.0274 42.2443C38.427 41.9873 38.7696 41.5448 39.0837 40.9025C39.3977 40.2601 39.6547 39.3894 39.8545 38.2902C40.0543 37.1911 40.1543 35.7922 40.1543 34.0935C40.1543 32.3948 40.0543 30.9959 39.8545 29.8968C39.6547 28.7977 39.3977 27.9269 39.0837 27.2846C38.7696 26.6422 38.4128 26.1997 38.0274 25.9428C37.6419 25.6858 37.2422 25.5573 36.8425 25.5573C36.4429 25.5573 36.0575 25.6858 35.6578 25.9428C35.2581 26.1997 34.9155 26.6422 34.6014 27.2846C34.2874 27.9269 34.0305 28.7977 33.8306 29.8968C33.6308 30.9959 33.5308 32.3948 33.5308 34.0935C33.5308 35.7922 33.6308 37.1911 33.8306 38.2902C34.0305 39.3894 34.2874 40.2601 34.6014 40.9025C34.9155 41.5448 35.2724 41.9873 35.6578 42.2443C36.0575 42.5012 36.4429 42.6297 36.8425 42.6297Z" fill="#292F36"/>
<path d="M72.1435 30.6248C72.1435 29.7968 72.0721 29.0831 71.9294 28.5264C71.7866 27.9697 71.6153 27.4986 71.3869 27.1418C71.1585 26.7849 70.9159 26.528 70.6589 26.3567C70.3877 26.1997 70.1308 26.114 69.8738 26.114C69.4313 26.114 69.0459 26.2568 68.7033 26.5422C68.3607 26.8277 68.0752 27.1561 67.8183 27.4986C67.5471 27.9126 67.2901 28.3837 67.0903 28.8833V41.7589L69.1887 42.2871V42.8152H59.4534V42.2871L61.5375 41.7589V30.6248C61.5375 29.7968 61.4661 29.0831 61.3234 28.5264C61.1806 27.9697 61.0093 27.4986 60.7809 27.1418C60.5525 26.7849 60.3099 26.528 60.053 26.3567C59.7817 26.1997 59.5248 26.114 59.2678 26.114C58.8253 26.114 58.4399 26.2568 58.0974 26.5422C57.7548 26.8277 57.4692 27.1561 57.2123 27.4986C56.9268 27.9126 56.6842 28.3837 56.4843 28.8833V41.7589L58.5684 42.2871V42.8152H48.8331V42.2871L50.9173 41.7589V26.4566L48.8331 25.9284V25.4003H51.9593C52.7729 25.4003 53.4438 25.543 53.9577 25.8143C54.4859 26.0855 54.8856 26.3995 55.1996 26.7135C55.5422 27.1132 55.7991 27.5415 55.9704 27.9983C56.2702 27.413 56.6413 26.8991 57.0838 26.4281C57.4835 26.0284 57.9689 25.6715 58.5399 25.3432C59.1251 25.0149 59.8246 24.8579 60.6668 24.8579C62.0514 24.8579 63.2647 25.1719 64.2639 25.7857C65.2774 26.3995 66.0483 27.1989 66.5764 28.1695C66.8762 27.57 67.2473 27.0276 67.6898 26.528C68.0895 26.114 68.5748 25.7286 69.1458 25.386C69.7311 25.0434 70.4305 24.8579 71.2727 24.8579C72.2291 24.8579 73.0856 25.0149 73.885 25.3146C74.6701 25.6144 75.3552 26.0284 75.9262 26.5565C76.4972 27.0847 76.9397 27.6842 77.2538 28.3837C77.5678 29.0831 77.7248 29.8254 77.7248 30.6105V41.7446L79.8089 42.2728V42.8009H75.2839C73.1998 42.8009 72.1577 41.7589 72.1577 39.6748V30.6248H72.1435Z" fill="#292F36"/>
<path d="M91.2857 43.3291C88.3166 43.3291 86.0041 42.5155 84.3625 40.8739C82.7209 39.2323 81.893 36.9912 81.893 34.1078C81.893 32.666 82.1071 31.3813 82.5211 30.2394C82.935 29.0974 83.5203 28.141 84.2626 27.3274C85.0048 26.528 85.9042 25.9142 86.9605 25.5002C88.0168 25.0863 89.173 24.8721 90.4149 24.8721C91.7139 24.8721 92.8844 25.0577 93.9122 25.4288C94.9399 25.8 95.8249 26.2996 96.5387 26.9277C97.2524 27.5558 97.8091 28.298 98.1945 29.1402C98.5799 29.9824 98.7655 30.8817 98.7655 31.8381C98.7655 32.1664 98.7512 32.4519 98.7084 32.6946C98.6656 32.9373 98.637 33.1514 98.5799 33.3369C98.5085 33.5653 98.4515 33.7652 98.4086 33.9222C97.3809 34.1363 96.3103 34.3076 95.1683 34.4504C94.1977 34.5931 93.0699 34.7073 91.7995 34.8215C90.5291 34.9214 89.1873 34.9785 87.8027 34.9785C87.8027 36.4202 87.9026 37.6193 88.1167 38.5757C88.3308 39.5321 88.6163 40.3029 88.9874 40.8739C89.3586 41.4449 89.8011 41.8446 90.3149 42.0872C90.8288 42.3299 91.3856 42.4584 91.9851 42.4584C92.6845 42.4584 93.3412 42.3299 93.955 42.073C94.5688 41.816 95.0969 41.4734 95.5537 41.0452C96.0105 40.617 96.3674 40.1316 96.6386 39.5892C96.9098 39.0468 97.0383 38.49 97.0383 37.9333H97.909C97.909 38.6328 97.752 39.3037 97.438 39.946C97.1239 40.6027 96.6814 41.1737 96.0962 41.6733C95.5109 42.1729 94.8257 42.5726 94.0121 42.8723C93.1842 43.1721 92.2706 43.3291 91.2857 43.3291ZM87.8027 34.1078C88.5878 34.1078 89.2872 34.0935 89.8867 34.0507C90.4863 34.0078 91.0002 33.9793 91.4141 33.9365C91.8995 33.8936 92.3134 33.8366 92.6703 33.7652C92.7131 33.5368 92.7702 33.2798 92.8416 32.9944C92.8844 32.7374 92.9272 32.4519 92.9557 32.1379C92.9843 31.8238 93.0129 31.4955 93.0129 31.1529C93.0129 30.1109 92.9272 29.2401 92.7702 28.5264C92.6132 27.8127 92.399 27.2417 92.1564 26.7992C91.9137 26.3567 91.6282 26.0427 91.3285 25.8571C91.0144 25.6715 90.7004 25.5716 90.4006 25.5716C90.1008 25.5716 89.7868 25.6858 89.4728 25.8999C89.1587 26.1283 88.8875 26.5423 88.6449 27.1561C88.4022 27.7699 88.2024 28.6406 88.0311 29.754C87.8883 30.8674 87.8027 32.3234 87.8027 34.1078Z" fill="#292F36"/>
<path d="M115.852 42.4584V28.3408L103.376 18.4629V42.4584H115.852Z" fill="#292F36"/>
<path d="M131.283 42.4584V28.3408L119.007 18.4629V42.4584H131.283Z" fill="#292F36"/>
</svg>
