<svg width="146" height="45" viewBox="0 0 146 45" fill="none" xmlns="http://www.w3.org/2000/svg">
<path d="M21.2237 8.95735L22.2943 8.72896C22.5655 8.72896 22.7939 8.78606 22.9509 8.90025C23.108 9.01445 23.1936 9.12864 23.1936 9.22857C23.1936 9.32849 23.165 9.48551 23.1222 9.67108C23.0794 9.85665 22.6797 11.7694 21.9374 15.3809C21.1952 18.9923 20.6527 21.6902 20.3101 23.4603C21.966 21.2049 23.9073 18.4356 26.1199 15.1382C28.3324 11.8408 29.6314 9.6568 30.0026 8.57194C30.1168 8.22935 30.2738 7.97241 30.4593 7.78684C30.6449 7.60127 30.8162 7.48707 30.9589 7.45853C31.1017 7.42998 31.3301 7.40143 31.6299 7.40143C31.9296 7.40143 32.2865 7.4728 32.7004 7.60127C33.1144 7.72974 33.3285 7.94386 33.3285 8.2579C33.3285 8.82888 32.472 10.499 30.7734 13.2397C29.0747 15.9804 27.1191 18.8924 24.9208 21.9757C22.7225 25.059 20.8954 27.5 19.4251 29.2986C19.1682 29.6126 18.8399 29.7839 18.4687 29.7839C18.0976 29.7839 17.6979 29.7125 17.2839 29.5841C16.87 29.4556 16.6559 29.2272 16.6559 28.8846C16.6559 27.814 17.598 22.6466 19.4822 13.411C17.8692 15.4951 15.9136 18.4071 13.6154 22.1327C11.2173 25.9869 9.86118 28.385 9.54714 29.2986C9.37585 29.8553 9.17601 30.1836 8.94762 30.2692C8.7906 30.3406 8.61929 30.3692 8.448 30.3692L7.29176 30.4976C7.06337 30.4976 6.86352 30.4405 6.66368 30.3121C6.47811 30.1836 6.37819 30.0551 6.37819 29.9124C6.37819 29.527 6.92063 28.3564 7.99122 26.4151C9.06181 24.4738 10.3322 22.3611 11.774 20.0772C13.2157 17.7933 14.7145 15.5807 16.2847 13.4253C17.8549 11.2698 19.0683 9.81382 19.9247 9.08582C20.096 8.9288 20.2959 8.85743 20.5243 8.85743L21.2237 8.95735Z" fill="#292F36"/>
<path d="M38.3817 18.6356C39.124 18.6356 39.4951 18.8926 39.4951 19.3922C39.4951 19.6634 39.438 19.8632 39.3095 19.9917C39.1811 20.1202 38.9099 20.5341 38.4959 21.2621C38.0819 21.9759 37.6251 22.8894 37.1255 24.0171C36.6259 25.1305 36.2976 26.0869 36.1549 26.872C36.1263 26.9719 36.1121 27.1004 36.1121 27.286C36.1121 27.8284 36.2548 28.0854 36.5546 28.0854C36.8543 28.0854 37.1969 27.9426 37.5966 27.6714C37.9963 27.3859 38.3531 27.1004 38.6672 26.7721C38.9812 26.4581 39.281 26.1297 39.5808 25.8014C39.8805 25.4731 40.0518 25.2733 40.1089 25.2304C40.166 25.1876 40.2517 25.1591 40.3659 25.1591C40.5514 25.1591 40.6656 25.3018 40.7085 25.5873C40.7513 25.8728 40.7655 26.1583 40.7655 26.4723C40.7655 26.7864 40.737 26.9862 40.6799 27.1004C40.3944 27.6571 39.7806 28.328 38.8099 29.1131C37.8535 29.8982 36.9685 30.2836 36.1834 30.2836C35.3983 30.2836 34.8131 30.041 34.4562 29.5699C34.0993 29.0988 33.8995 28.5564 33.8995 27.9854C33.8995 27.4002 33.9994 26.9006 34.1993 26.4581C33.3856 27.5144 32.4578 28.3994 31.4157 29.1417C30.3594 29.8697 29.5172 30.2408 28.8463 30.2408C28.1754 30.2408 27.6473 30.041 27.219 29.6413C26.6766 29.1417 26.4196 28.4565 26.4196 27.5715C26.4196 26.6865 26.6195 25.8014 27.0192 24.9021C27.4189 24.0171 27.9328 23.1892 28.5751 22.4612C29.2175 21.7189 29.9312 21.048 30.702 20.4485C32.315 19.178 33.8138 18.55 35.1842 18.55C35.7124 18.55 36.1406 18.6356 36.4689 18.8069C36.7972 18.9782 37.0114 19.2066 37.097 19.4635C37.3254 19.1067 37.5252 18.8926 37.6965 18.7926C37.825 18.6784 38.0677 18.6356 38.3817 18.6356ZM36.4404 20.2629C34.7702 20.2629 33.043 21.1908 31.2587 23.0464C30.6306 23.7173 30.0454 24.5024 29.5029 25.4303C28.9605 26.3581 28.7036 26.9862 28.7036 27.3288C28.7036 27.6714 28.8035 27.8427 29.0033 27.8427C29.2746 27.8427 30.0311 27.3003 31.2873 26.2297C32.5434 25.1591 33.3713 24.3597 33.771 23.8458C34.2278 23.2748 35.1128 22.0758 36.4404 20.2629Z" fill="#292F36"/>
<path d="M49.4873 10.8987L50.0868 11.0414C50.1725 11.0414 50.2581 11.0842 50.3152 11.1699C50.3866 11.2555 50.4151 11.3412 50.4151 11.4125C50.4151 11.4839 50.3152 11.698 50.1011 12.0406C49.887 12.3832 49.6586 12.7686 49.3731 13.1969C49.0876 13.6251 48.9449 13.8678 48.9306 13.9106C49.6871 13.8535 50.2296 13.8249 50.5436 13.8249C50.8577 13.8249 51.0718 13.8535 51.2002 13.8963C51.3144 13.9391 51.4572 14.0676 51.5999 14.2675C51.7569 14.4673 51.8854 14.6243 52.0139 14.7242C52.1424 14.8242 52.1995 14.9812 52.1995 15.181C52.1995 15.3809 52.071 15.5664 51.8283 15.6949C51.5856 15.8377 51.3144 15.9233 51.0289 15.9518C48.7593 16.1802 47.5174 16.2944 47.289 16.3087C46.5039 17.522 45.3905 19.4063 43.9773 21.9614C42.5641 24.5166 41.8076 26.1296 41.7219 26.7719C41.6791 27.0717 41.6649 27.3001 41.6649 27.4857C41.6649 27.8711 41.8647 28.0567 42.2644 28.0567C42.6641 28.0567 43.1066 27.8996 43.5919 27.5999C44.0772 27.2858 44.534 26.9575 44.9337 26.6007C46.0329 25.63 46.6181 25.1304 46.6895 25.1304C46.9464 25.1304 47.0749 25.5729 47.0749 26.4436C47.0749 26.9147 46.8608 27.3429 46.4183 27.7283C45.4333 28.5705 44.6054 29.2129 43.9345 29.6411C43.2636 30.0694 42.5927 30.2835 41.9075 30.2835C41.7648 30.2835 41.622 30.2692 41.4936 30.2407C40.7085 30.0979 40.1375 29.8124 39.7806 29.3842C39.4095 28.956 39.2382 28.385 39.2382 27.6712C39.2382 26.9575 39.4523 26.0725 39.8805 25.0447C40.3088 24.017 40.8369 22.9178 41.4793 21.7616C42.5356 19.8631 43.5919 18.093 44.634 16.4372L44.0773 16.5086C42.9496 16.637 42.2929 16.6941 42.1074 16.6941H41.9789C41.6934 16.6941 41.4222 16.637 41.1652 16.5228C40.9083 16.4086 40.7656 16.2659 40.7656 16.1089C40.7656 15.9376 40.8369 15.7806 40.9797 15.6235C41.1224 15.4665 41.2081 15.338 41.2366 15.2524C41.308 15.0383 41.5649 14.7956 42.0074 14.5387C42.4499 14.2817 42.7783 14.139 43.0067 14.1247C43.2351 14.1104 43.4492 14.0962 43.6633 14.0819C43.8774 14.0676 44.1058 14.0676 44.3627 14.0533C44.6197 14.0391 44.8195 14.0391 44.9623 14.0248L46.2755 13.9677C47.0892 12.7401 47.6602 11.9407 47.9599 11.5981C48.274 11.2413 48.4453 11.0557 48.4881 11.0271C48.5309 10.9986 48.6308 10.97 48.7878 10.97L49.4873 10.8987Z" fill="#292F36"/>
<path d="M58.2661 25.1591C58.4517 25.1591 58.5659 25.3018 58.6087 25.5873C58.6515 25.8728 58.6658 26.1583 58.6658 26.4723C58.6658 26.7864 58.6373 26.9862 58.5802 27.1004C58.2947 27.6428 57.6809 28.3137 56.7245 29.0988C55.7681 29.8839 54.8545 30.2836 53.9981 30.2836C53.4699 30.2836 52.9846 30.1266 52.5278 29.8126C52.0853 29.4985 51.8569 28.9418 51.8569 28.1567C51.8569 27.3716 52.071 26.5865 52.485 25.83C50.0583 28.8704 48.174 30.3836 46.7894 30.3836C46.247 30.3836 45.8045 30.1837 45.4619 29.7983C45.1193 29.4129 44.9623 29.0132 44.9623 28.585C44.9623 28.171 45.0194 27.7428 45.1336 27.3003C45.2477 26.8577 45.3762 26.4581 45.5047 26.1012C45.6332 25.7443 45.833 25.3161 46.0899 24.8022C46.3469 24.2883 46.5467 23.9172 46.6609 23.6745C46.7751 23.4319 46.9892 23.0893 47.2747 22.6182C47.5602 22.1471 47.9171 21.5048 48.3739 20.7054C48.8307 19.906 49.2018 19.3065 49.5016 18.9211C49.8013 18.5357 50.0868 18.3358 50.3723 18.3358C50.6578 18.3358 50.9005 18.45 51.1146 18.6784C51.3287 18.9068 51.4429 19.1067 51.4429 19.2494C51.4429 19.3922 51.1146 20.0488 50.458 21.2193C48.5309 24.7166 47.5602 26.7435 47.5602 27.3288C47.5602 27.4715 47.6173 27.5429 47.7172 27.5429C48.1883 27.5429 49.3588 26.5294 51.2145 24.5024C53.0702 22.4755 54.1551 21.1765 54.4548 20.6055C54.7546 20.0345 55.0258 19.5492 55.3113 19.1638C55.5825 18.7784 55.7966 18.5357 55.9394 18.45C56.3534 18.1788 56.8958 18.0361 57.5667 18.0075C57.6809 18.0075 57.7523 18.0075 57.8093 18.0218C57.8664 18.0361 57.9378 18.1217 58.0092 18.2645C58.0806 18.4072 58.1234 18.5357 58.1234 18.6356C58.0377 18.9068 57.6523 19.6348 56.9529 20.8196C56.2677 22.0044 55.8823 22.6753 55.8109 22.818C54.6547 25.2019 54.0837 26.7578 54.0837 27.4715C54.0837 27.8855 54.2407 28.0854 54.5548 28.0854C55.1257 28.014 55.8109 27.5572 56.6103 26.7293C56.9101 26.4295 57.1955 26.1155 57.481 25.8014C57.7665 25.4874 57.9521 25.3018 58.0092 25.259C58.0806 25.1876 58.1662 25.1591 58.2661 25.1591Z" fill="#292F36"/>
<path d="M62.5057 21.776C64.8039 19.1637 66.7738 17.8505 68.3868 17.8505C68.7865 17.8505 69.1148 17.9647 69.3717 18.2073C69.6287 18.45 69.7571 18.7498 69.7571 19.1352C69.7571 19.5206 69.4859 20.1487 68.9435 21.048C68.4011 21.933 67.9015 22.6896 67.4447 23.3034C67.202 23.6174 66.9308 23.7744 66.6167 23.7744C66.317 23.7744 66.0743 23.6602 65.903 23.4318C65.7317 23.2034 65.6461 22.9465 65.6461 22.6467C65.6461 21.9758 66.0029 21.205 66.7309 20.3628L66.7024 20.3343C66.3741 20.3628 65.589 21.0052 64.3043 22.2328C63.0338 23.4747 61.949 24.5881 61.0497 25.5587C60.1647 26.5437 59.194 27.7285 58.1377 29.1416C57.8379 29.5556 57.581 29.7697 57.3668 29.7697C57.1527 29.7697 56.8815 29.6983 56.5389 29.5699C56.1963 29.4414 55.9822 29.3415 55.9108 29.2844C55.8395 29.2273 55.7966 29.1274 55.7966 28.9846C55.7966 28.8561 55.8395 28.6849 55.9108 28.5136C55.9822 28.328 56.1392 28.0711 56.3391 27.7427C56.5389 27.4144 56.8672 26.872 57.2955 26.1297C57.7237 25.3874 58.3803 24.2598 59.2796 22.7609C60.1789 21.2621 60.7071 20.3485 60.8927 20.0345C61.2638 19.3921 61.5636 18.9211 61.8062 18.6356C62.2487 18.0789 62.991 17.8077 64.0331 17.8077C64.2614 17.8077 64.3899 17.9504 64.3899 18.2502C64.3899 18.707 63.9617 19.5777 63.1195 20.8339L62.5057 21.776Z" fill="#292F36"/>
<path d="M78.2505 18.8068C78.2505 19.4492 77.9936 20.0202 77.4654 20.5055C76.9372 20.9908 76.352 21.2335 75.6811 21.2335C75.467 21.2335 75.3242 21.1764 75.2528 21.0765C75.1815 20.9766 75.1529 20.8338 75.1529 20.6768C75.1529 20.5198 75.1672 20.3485 75.21 20.1914C74.8531 20.3056 74.4677 20.4912 74.0395 20.7339C73.6113 20.9765 73.0831 21.3334 72.455 21.8188C71.8269 22.3041 71.5129 22.6467 71.5129 22.8893C71.5129 22.9607 71.6271 23.0035 71.8555 23.0035C72.0839 23.0035 72.4408 22.9179 72.9118 22.7609C73.3829 22.6038 73.7255 22.5182 73.911 22.5182C74.0966 22.5182 74.2251 22.5325 74.2822 22.5467C74.4106 22.6181 74.5391 22.7609 74.6961 22.9893C74.8389 23.2177 74.9102 23.4032 74.9102 23.5317C74.9102 23.6602 74.7818 23.8315 74.5248 24.0456C74.2679 24.2597 73.9824 24.4167 73.6684 24.5309C73.34 24.6451 73.1259 24.7308 73.026 24.7879C70.9705 25.9441 69.9427 26.7292 69.9427 27.1574C69.9427 27.914 70.5851 28.2994 71.884 28.2994C72.712 28.2994 73.5542 28.0424 74.3821 27.5143C75.0958 27.0718 75.7382 26.615 76.3092 26.1439C76.8801 25.6871 77.237 25.4017 77.394 25.2875C77.551 25.1733 77.6652 25.1304 77.7366 25.1304C77.9936 25.1304 78.122 25.4159 78.122 25.9869C78.122 26.5579 78.0935 26.929 78.0221 27.1003C77.9507 27.2859 77.7652 27.5 77.4368 27.7712C75.3528 29.4699 73.3686 30.3264 71.5129 30.3264C70.5137 30.3264 69.7286 30.1836 69.129 29.9124C68.0299 29.4128 67.4875 28.6563 67.4875 27.6285C67.4875 26.2867 68.4153 25.2589 70.2853 24.5737C69.9142 24.4024 69.6715 24.2026 69.5716 23.9314C69.4574 23.6744 69.4146 23.2605 69.4146 22.6895C69.4146 22.1185 69.6858 21.519 70.2139 20.8766C70.7421 20.2343 71.3987 19.7061 72.1695 19.3064C73.8825 18.3786 75.4241 17.9218 76.7659 17.9218C77.0942 17.9218 77.4083 17.9932 77.7509 18.1502C78.0935 18.3072 78.2505 18.5213 78.2505 18.8068Z" fill="#292F36"/>
<path d="M111.567 8.87176H111.753C111.81 8.87176 111.853 8.87176 111.867 8.88604C111.881 8.90031 111.896 8.90031 111.924 8.91459C111.953 8.91459 111.967 8.92886 111.995 8.95741C112.038 9.00023 112.11 9.04306 112.195 9.08588C112.31 9.17153 112.367 9.27145 112.367 9.38565C112.367 9.49984 112.252 9.74251 112.024 10.1136C111.796 10.4848 111.21 11.3841 110.254 12.8401C108.07 16.1803 106.114 19.2922 104.387 22.1471C101.404 27.1146 99.8907 29.6127 99.8621 29.6412C99.8336 29.6698 99.8193 29.6983 99.805 29.7269C99.7908 29.784 99.7622 29.8125 99.6908 29.8125L99.491 29.7697L99.0913 29.8696L98.8629 29.8268L98.6202 29.8696H98.5346L97.721 29.9838C97.2356 29.9838 96.9929 29.8125 96.9929 29.4842C96.9929 29.3414 97.0358 29.1702 97.1214 28.9703C97.4212 28.2566 98.9486 25.6729 101.689 21.1907C99.8907 21.2335 98.1064 21.2621 96.3506 21.2621L93.2102 21.2478C92.6963 22.0757 91.9826 23.2462 91.0833 24.7736C89.142 28.0996 88.1142 29.7697 87.9857 29.7982C87.8572 29.8268 87.7573 29.8553 87.6717 29.8553C87.586 29.8553 87.5147 29.8125 87.4576 29.7126C87.3862 29.6269 87.3434 29.5698 87.3148 29.5698C87.2863 29.5698 87.2434 29.5841 87.1578 29.6269C87.0864 29.6698 86.9722 29.684 86.8152 29.684L86.4726 29.6698L86.3442 29.5841C86.3299 29.5841 86.3156 29.5984 86.3013 29.6269C86.2871 29.6555 86.2442 29.6698 86.1871 29.6698C85.7732 29.6698 85.5591 29.4985 85.5591 29.1416C85.5591 28.9132 85.6447 28.5992 85.8017 28.2138C85.973 27.8283 86.1871 27.4144 86.4584 26.9719C86.7296 26.5294 87.4147 25.4588 88.5424 23.7887C89.6558 22.1185 90.2125 21.2763 90.2125 21.2621C90.027 21.2478 89.8129 21.2478 89.5702 21.2335C89.0706 21.2335 88.728 21.2192 88.5139 21.1764C87.9572 21.0765 87.5718 20.6197 87.3719 19.8061C87.2577 19.4064 87.2149 19.1494 87.2292 19.021C87.2292 18.764 87.3434 18.6213 87.5718 18.6213L87.9572 18.7212C88.157 18.7355 88.6138 18.7497 89.3561 18.7926C90.0984 18.8354 90.6265 18.8497 90.9548 18.8497L91.7827 18.8211C93.0532 16.837 94.5663 14.5816 96.3363 12.0693C95.0516 13.1256 93.6242 13.6537 92.054 13.6537C91.3117 13.6537 90.6693 13.4824 90.1412 13.1256C89.5987 12.7687 89.3418 12.3119 89.3418 11.7695C89.3418 11.2271 89.5416 10.7988 89.9556 10.4705C90.3696 10.1565 90.755 9.99945 91.1261 9.99945C91.4972 9.99945 91.6828 10.0566 91.6828 10.1707C91.6828 10.2136 91.6257 10.2564 91.5258 10.2992C91.4259 10.3563 91.3688 10.3991 91.3688 10.442C91.3688 10.599 91.5401 10.7417 91.8827 10.8559C92.2253 10.9701 92.6107 11.0415 93.0389 11.0415C93.4671 11.0415 93.981 10.913 94.6091 10.6704C95.2372 10.4277 95.8795 10.0994 96.5504 9.71396C97.4926 9.17153 98.2348 8.71474 98.7773 8.35788C99.0913 8.20086 99.3768 8.12949 99.6623 8.12949C99.9478 8.12949 100.133 8.15804 100.262 8.22941C100.39 8.28651 100.476 8.35788 100.533 8.41498C100.59 8.47208 100.661 8.55772 100.719 8.65765C100.79 8.75757 100.847 8.84321 100.918 8.88604C100.976 8.94314 101.018 9.00023 101.018 9.07161C101.018 9.14298 100.976 9.2429 100.904 9.39992C100.833 9.54267 100.462 10.1422 99.7908 11.1842C99.1199 12.2263 98.2491 13.5538 97.1928 15.1668C96.1365 16.7799 95.3657 17.9646 94.8803 18.7355C97.4926 18.7355 100.305 18.6926 103.331 18.5927C107.014 12.783 108.955 9.74251 109.155 9.45702C109.355 9.17153 109.54 8.98596 109.712 8.90031C109.883 8.81466 110.083 8.77184 110.325 8.77184L111.567 8.87176Z" fill="#292F36"/>
<path d="M116.335 18.607C116.635 18.607 116.934 18.7355 117.234 19.0067C117.548 19.2779 117.691 19.6776 117.691 20.22C117.691 20.7625 117.505 21.4619 117.12 22.3327C116.735 23.1891 116.221 24.0742 115.55 24.9734C114.893 25.8585 114.151 26.7007 113.366 27.4858C112.566 28.2709 111.71 28.9132 110.796 29.4128C109.869 29.9124 109.041 30.1694 108.284 30.1694C107.528 30.1694 106.928 29.9267 106.471 29.4557C106.014 28.9846 105.786 28.328 105.786 27.4858C105.786 26.6436 106 25.7015 106.414 24.688C106.828 23.6602 107.356 22.7609 108.013 21.9758C108.67 21.1907 109.369 20.4912 110.14 19.8632C111.724 18.5785 113.123 17.9504 114.322 17.9504C114.865 17.9504 115.264 18.0788 115.536 18.3501C115.635 18.4357 115.678 18.5214 115.678 18.5785V18.6641C115.835 18.607 116.049 18.607 116.335 18.607ZM114.865 20.5483H114.765C114.422 20.5483 114.251 20.3057 114.251 19.8061C113.537 20.0345 112.795 20.4484 112.01 21.0337C111.225 21.6189 110.525 22.3184 109.911 23.1178C108.655 24.7165 108.027 26.0726 108.013 27.1717C108.013 27.7142 108.213 27.9854 108.612 27.9854C109.012 27.9854 109.612 27.7142 110.397 27.2003C111.182 26.6864 111.967 25.9298 112.752 24.9449C113.523 23.9742 114.108 23.1178 114.494 22.404C114.879 21.6903 115.079 21.205 115.079 20.9338C115.064 20.6768 114.993 20.5483 114.865 20.5483Z" fill="#292F36"/>
<path d="M117.377 29.841L116.663 29.8125H116.406C116.306 29.7839 116.206 29.7268 116.092 29.6412C115.978 29.5555 115.892 29.4842 115.835 29.4556C115.778 29.4271 115.75 29.3414 115.75 29.2415C115.75 29.1416 115.793 28.956 115.864 28.7133C117.762 24.5309 119.604 21.1764 121.388 18.6783C121.588 18.4071 121.902 18.193 122.33 18.0503C122.758 17.9075 123.187 17.8361 123.601 17.8361C123.843 17.8361 123.972 18.0217 123.972 18.4071C123.972 18.5213 123.929 18.6641 123.858 18.8354C123.786 19.0209 123.586 19.3064 123.272 19.7204C122.958 20.1343 122.587 20.6054 122.159 21.1193C121.731 21.6332 121.488 21.9472 121.431 22.0328C122.773 20.6482 123.972 19.6205 125.057 18.9353C126.142 18.2644 126.912 17.9218 127.398 17.9218C127.883 17.9218 128.254 18.0645 128.511 18.3357C128.768 18.607 128.897 18.9067 128.897 19.2208C128.897 19.5348 128.868 19.806 128.825 20.0059C128.782 20.22 128.697 20.4341 128.582 20.6625C128.468 20.8909 128.368 21.0907 128.283 21.2477C128.197 21.4048 128.054 21.6189 127.869 21.8758C127.669 22.1328 127.54 22.3183 127.469 22.4183C127.398 22.5182 127.241 22.7038 127.012 22.975C126.784 23.2462 126.655 23.4032 126.641 23.4318C126.912 23.1605 127.298 22.7609 127.783 22.2184C128.268 21.676 128.682 21.2335 129.025 20.8766C129.368 20.5198 129.782 20.1058 130.295 19.649C130.809 19.1922 131.28 18.8211 131.709 18.5499C132.765 17.8932 133.836 17.5506 134.92 17.5506C135.292 17.5506 135.606 17.6648 135.863 17.9075C136.119 18.1502 136.248 18.4214 136.248 18.7497C136.248 19.078 135.848 19.8631 135.063 21.0907C134.278 22.3183 133.479 23.5602 132.694 24.8021C131.908 26.044 131.509 26.8291 131.509 27.1574C131.509 27.5999 131.594 27.8711 131.751 27.9568C131.923 28.0424 132.123 28.071 132.351 28.0567C132.579 28.0424 132.922 27.8854 133.336 27.5999C133.764 27.3144 134.135 27.0289 134.464 26.7149C135.006 26.2296 135.491 25.7585 135.962 25.3017C136.062 25.2161 136.162 25.1732 136.291 25.1732C136.476 25.1732 136.591 25.316 136.633 25.6015C136.676 25.887 136.69 26.1725 136.69 26.4865C136.69 26.8005 136.662 27.0004 136.605 27.1146C136.319 27.657 135.691 28.3279 134.735 29.1273C133.764 29.9124 132.836 30.3121 131.951 30.3121C131.837 30.3121 131.766 30.3121 131.723 30.2978C130.724 30.1979 130.024 29.9267 129.639 29.4699C129.253 29.0131 129.068 28.4707 129.068 27.8569C129.068 27.2431 129.282 26.4722 129.71 25.5872C130.138 24.7022 130.595 23.8885 131.109 23.1748C131.623 22.4611 132.08 21.8045 132.508 21.2192C132.936 20.6339 133.15 20.3199 133.15 20.2771C133.15 20.2343 133.108 20.2057 133.036 20.2057C132.736 20.2057 132.065 20.691 131.009 21.676C129.225 23.3461 127.683 24.9591 126.384 26.5008C126.042 26.9147 125.228 27.9425 123.958 29.6126C123.815 29.8125 123.572 29.9124 123.258 29.9124C122.944 29.9124 122.616 29.8553 122.273 29.7268C121.931 29.5984 121.759 29.4413 121.759 29.2558C121.759 29.1558 122.53 27.7855 124.086 25.1447C125.642 22.5039 126.413 21.0622 126.413 20.8338C126.413 20.5911 126.27 20.4769 125.985 20.4769C125.699 20.4769 125.1 20.9052 124.2 21.7616C121.731 24.1169 119.818 26.4722 118.462 28.799C118.376 28.9417 118.205 29.1558 117.948 29.4413C117.691 29.7268 117.463 29.841 117.377 29.841Z" fill="#292F36"/>
<path d="M145.683 18.8068C145.683 19.4492 145.426 20.0202 144.898 20.5055C144.37 20.9908 143.785 21.2335 143.114 21.2335C142.9 21.2335 142.757 21.1764 142.686 21.0765C142.614 20.9766 142.586 20.8338 142.586 20.6768C142.586 20.5198 142.6 20.3485 142.643 20.1914C142.286 20.3056 141.901 20.4912 141.472 20.7339C141.044 20.9765 140.516 21.3334 139.888 21.8188C139.26 22.3041 138.946 22.6467 138.946 22.8893C138.946 22.9607 139.06 23.0035 139.288 23.0035C139.517 23.0035 139.874 22.9179 140.345 22.7609C140.816 22.6038 141.158 22.5182 141.344 22.5182C141.53 22.5182 141.658 22.5325 141.715 22.5467C141.844 22.6181 141.972 22.7609 142.129 22.9893C142.272 23.2177 142.343 23.4032 142.343 23.5317C142.343 23.6602 142.215 23.8315 141.958 24.0456C141.701 24.2597 141.415 24.4167 141.101 24.5309C140.773 24.6451 140.559 24.7308 140.459 24.7879C138.403 25.9441 137.376 26.7292 137.376 27.1574C137.376 27.914 138.018 28.2994 139.317 28.2994C140.145 28.2994 140.987 28.0424 141.815 27.5143C142.529 27.0718 143.171 26.615 143.742 26.1439C144.313 25.6871 144.67 25.4017 144.827 25.2875C144.984 25.1733 145.098 25.1304 145.17 25.1304C145.426 25.1304 145.555 25.4159 145.555 25.9869C145.555 26.5579 145.526 26.929 145.455 27.1003C145.384 27.2859 145.198 27.5 144.87 27.7712C142.786 29.4699 140.801 30.3264 138.946 30.3264C137.947 30.3264 137.162 30.1836 136.562 29.9124C135.463 29.4128 134.92 28.6563 134.92 27.6285C134.92 26.2867 135.848 25.2589 137.718 24.5737C137.347 24.4024 137.104 24.2026 137.004 23.9314C136.89 23.6744 136.847 23.2605 136.847 22.6895C136.847 22.1185 137.119 21.519 137.647 20.8766C138.175 20.2343 138.832 19.7061 139.602 19.3064C141.315 18.3786 142.857 17.9218 144.199 17.9218C144.527 17.9218 144.841 17.9932 145.184 18.1502C145.526 18.3072 145.683 18.5213 145.683 18.8068Z" fill="#292F36"/>
<path d="M0.982422 33.7951C4.73662 35.3653 8.56219 36.5786 12.4591 37.5065C16.3275 38.4771 20.2673 39.1623 24.2071 39.5905C26.177 39.8618 28.1611 39.8903 30.1168 40.0759C32.1009 40.0901 34.0708 40.2472 36.0407 40.133L38.9955 40.0616C39.9805 40.0473 40.9654 39.9188 41.9503 39.8618C42.9353 39.7761 43.9202 39.7333 44.8909 39.6048L47.8172 39.1908C51.7427 38.7626 55.554 37.849 59.351 36.7499C63.1908 35.6936 66.8166 34.2947 70.6564 32.8387C74.5819 31.397 78.8357 30.4548 83.1466 30.9116C85.2736 31.1828 87.4147 31.868 89.1562 33.1242C90.912 34.3661 92.1682 36.1361 92.9675 37.9918C91.7685 36.3359 90.2696 34.9799 88.5424 34.1377C86.8152 33.2955 84.9167 32.9529 83.0324 33.01C79.2211 33.0671 75.4669 34.3375 71.9411 35.9363C68.3582 37.7063 64.4755 39.305 60.5643 40.6326C56.6245 41.903 52.5563 42.9165 48.431 43.4304C40.2231 44.5153 31.8154 44.5295 23.7075 42.888C19.6392 42.1457 15.6709 40.9894 11.8311 39.5192C8.01975 37.9918 4.29411 36.2075 0.982422 33.7951Z" fill="#292F36"/>
<path d="M137.49 10.028C134.307 8.67192 131.066 7.6156 127.783 6.78768C124.514 5.91693 121.203 5.30313 117.877 4.87489C116.221 4.61795 114.536 4.56085 112.881 4.36101C111.21 4.31819 109.555 4.14689 107.884 4.21826C107.056 4.23254 106.214 4.23254 105.386 4.21826C104.558 4.21826 103.716 4.30391 102.888 4.33246C102.06 4.38956 101.218 4.40383 100.39 4.48948L97.9065 4.78924C94.5805 5.06046 91.3545 5.74564 88.1285 6.58784C84.8596 7.37294 81.762 8.48635 78.4646 9.59976C75.0815 10.7275 71.413 11.4126 67.7301 10.8987C65.9173 10.599 64.0901 9.95663 62.6484 8.81466C61.1781 7.68697 60.1789 6.14532 59.5651 4.5323C60.5786 5.94548 61.8348 7.10172 63.2765 7.81545C64.7182 8.52917 66.3027 8.82894 67.8872 8.81466C71.0847 8.81466 74.2536 7.7869 77.2513 6.50219C80.306 5.04619 83.6605 3.76148 87.0008 2.70516C90.3696 1.69167 93.8811 0.920846 97.3926 0.549708C104.401 -0.192567 111.567 -0.0212733 118.433 1.60602C121.873 2.33403 125.228 3.44744 128.44 4.81779C131.666 6.2167 134.778 7.844 137.49 10.028Z" fill="#292F36"/>
</svg>
