<svg width="103" height="103" viewBox="0 0 103 103" fill="none" xmlns="http://www.w3.org/2000/svg">
<path d="M51.4431 101.606C79.3038 101.606 101.889 79.0206 101.889 51.1599C101.889 23.2993 79.3038 0.713727 51.4431 0.713727C23.5825 0.713727 0.996924 23.2993 0.996924 51.1599C0.996924 79.0206 23.5825 101.606 51.4431 101.606Z" fill="white"/>
<path d="M51.4431 102.32C23.2367 102.32 0.283203 79.3664 0.283203 51.1599C0.283203 22.9535 23.2367 0 51.4431 0C79.6496 0 102.603 22.9535 102.603 51.1599C102.603 79.3664 79.6496 102.32 51.4431 102.32ZM51.4431 1.42745C24.0218 1.42745 1.71066 23.7386 1.71066 51.1599C1.71066 78.5813 24.0218 100.892 51.4431 100.892C78.8645 100.892 101.176 78.5813 101.176 51.1599C101.176 23.7386 78.8645 1.42745 51.4431 1.42745Z" fill="#292F36"/>
<path d="M58.6375 5.83832C58.9801 5.86686 59.2799 5.88114 59.5226 5.88114L59.494 6.10953C59.0943 6.16663 58.7517 6.46639 58.4805 7.03738L55.0832 13.8321L54.9833 13.8178L54.8976 13.8035L52.7422 6.22373C52.5994 5.72412 52.3568 5.4529 52.0142 5.41008L52.0427 5.18169C52.3568 5.23878 52.7707 5.28161 53.2846 5.33871C53.9555 5.3958 54.4551 5.43863 54.7834 5.43863L54.7549 5.66702C54.4551 5.65275 54.241 5.66702 54.1125 5.70984C53.984 5.75267 53.9127 5.86686 53.8984 6.00961C53.8841 6.13808 53.9127 6.32365 53.984 6.56632L55.5685 12.3618L57.9238 7.62263C58.1237 7.23722 58.2236 6.92318 58.2521 6.69479C58.2807 6.45212 58.2093 6.26655 58.0523 6.13808C57.8953 6.00961 57.6383 5.93824 57.2957 5.89541L57.3243 5.66702C57.7383 5.73839 58.1808 5.79549 58.6375 5.83832Z" fill="#292F36"/>
<path d="M68.23 8.85027C68.0873 8.85027 67.9731 8.90737 67.8874 9.02156C67.8018 9.13576 67.7019 9.32133 67.6019 9.59255L65.5607 15.0169C65.4608 15.2881 65.4037 15.5022 65.4037 15.6449C65.4037 15.7877 65.4465 15.9019 65.5464 15.9875C65.6463 16.0732 65.8319 16.1731 66.0888 16.2873L66.0032 16.5014C65.6749 16.3587 65.2181 16.1731 64.6328 15.9447C64.0048 15.702 63.5337 15.545 63.2197 15.4451L63.3053 15.231C63.5765 15.3166 63.7764 15.3595 63.9048 15.3595C64.0333 15.3595 64.1618 15.3024 64.2474 15.1882C64.3331 15.074 64.433 14.8884 64.5329 14.6172L66.5742 9.19286C66.6741 8.92164 66.7312 8.70752 66.7312 8.56478C66.7312 8.42203 66.6884 8.30784 66.5884 8.22219C66.4885 8.13654 66.303 8.03662 66.046 7.92242L66.1317 7.70831C66.4314 7.83678 66.8882 8.02235 67.5163 8.26501C68.1015 8.49341 68.5726 8.65043 68.9152 8.75035L68.8296 8.96447C68.5726 8.87882 68.3728 8.83599 68.23 8.85027Z" fill="#292F36"/>
<path d="M80.9344 16.4015C80.7916 16.3729 80.6489 16.4157 80.5204 16.5014C80.3919 16.587 80.2349 16.7583 80.0636 17.001L75.924 22.6109L75.7099 22.4539L76.2666 13.4323L72.598 18.3999C72.4267 18.6426 72.3125 18.8424 72.2554 18.9994C72.1983 19.1564 72.2269 19.2992 72.2983 19.4419C72.3696 19.5847 72.5409 19.7417 72.7836 19.9415L72.6408 20.1271C72.4267 19.9415 72.1127 19.6989 71.6987 19.3848C71.3276 19.1136 71.0278 18.8995 70.7994 18.771L70.9422 18.5855C71.1706 18.7425 71.3561 18.8281 71.4989 18.8424C71.6416 18.8709 71.7844 18.8281 71.9128 18.7425C72.0413 18.6426 72.1983 18.4855 72.3696 18.2429L75.7384 13.675C75.9097 13.4323 76.0239 13.2468 76.0667 13.1183C76.1096 12.9898 76.0953 12.8614 76.0239 12.7472C75.9525 12.633 75.8098 12.4902 75.5814 12.3047L75.7241 12.1191C75.9097 12.2904 76.1952 12.5188 76.5806 12.79C76.8661 13.0041 77.1088 13.1754 77.3372 13.3039L76.8804 20.8694L79.8495 16.844C80.0208 16.6013 80.1493 16.4015 80.1921 16.2444C80.2349 16.0874 80.2206 15.9447 80.1493 15.8019C80.0779 15.6592 79.9066 15.4879 79.6639 15.3023L79.8067 15.1167C80.0208 15.3023 80.3348 15.545 80.7488 15.859C81.1199 16.1302 81.4197 16.3444 81.6481 16.4728L81.5053 16.6584C81.2627 16.5156 81.0771 16.4157 80.9344 16.4015Z" fill="#292F36"/>
<path d="M85.7163 22.8392C86.0875 22.568 86.4729 22.2682 86.8868 21.8971C87.2437 22.4395 87.8718 23.3388 88.7711 24.6093C89.6704 25.8654 90.3127 26.7505 90.6981 27.2643C90.2128 27.5498 89.7989 27.8068 89.4277 28.0637C89.1137 28.2921 88.8567 28.4919 88.6712 28.649L88.5141 28.4348C88.9709 28.0352 89.285 27.7068 89.4705 27.4642C89.6561 27.2215 89.7275 26.9646 89.7132 26.6934C89.6989 26.4221 89.5276 26.0938 89.2564 25.6941L88.8853 25.1803L83.4752 29.0344C83.2183 29.2199 83.0327 29.3912 82.9471 29.5197C82.8614 29.6482 82.8329 29.8052 82.89 29.9765C82.9328 30.1335 83.0613 30.3619 83.2468 30.6474L83.0613 30.7901C82.8472 30.4476 82.5188 29.9622 82.0906 29.377C81.6338 28.7346 81.2912 28.2778 81.0628 27.9923L81.2484 27.8496C81.4625 28.1208 81.6338 28.3064 81.7766 28.4063C81.9193 28.5062 82.062 28.5348 82.2191 28.4919C82.3761 28.4491 82.5902 28.3349 82.8472 28.1494L88.2572 24.2952L87.8861 23.7813C87.6006 23.3817 87.3436 23.139 87.101 23.0248C86.8583 22.9106 86.5871 22.8963 86.3016 22.9963C86.0161 23.0962 85.6021 23.2817 85.074 23.5815L84.917 23.3674C85.1311 23.2532 85.388 23.0819 85.7163 22.8392Z" fill="#292F36"/>
<path d="M88.457 42.6524L88.2286 42.7237C88.143 42.4097 88.0288 42.01 87.8575 41.5247C87.6434 40.8966 87.4721 40.4255 87.3436 40.1115L87.572 40.0401C87.6719 40.3113 87.7861 40.5112 87.8718 40.6111C87.9717 40.711 88.1002 40.7396 88.2429 40.6825C88.3714 40.6396 88.5284 40.5397 88.714 40.3827L90.2984 39.0837L89.3991 36.4144L88.0716 36.3573C87.6434 36.3287 87.3151 36.3573 87.0867 36.4429C86.8583 36.5286 86.7155 36.6571 86.6584 36.8426C86.6156 37.0282 86.6442 37.2994 86.7441 37.6277L86.5157 37.6991C86.4015 37.2709 86.2588 36.8426 86.116 36.4144C86.0018 36.0861 85.9019 35.8149 85.802 35.6007L86.0303 35.5294C86.2302 35.872 86.6584 36.0575 87.2865 36.0718L94.8806 36.4144L94.9377 36.5857L88.8853 41.6246C88.5141 41.9815 88.3714 42.3098 88.457 42.6524ZM93.4103 36.5857L89.6704 36.4287L90.5126 38.941L93.4103 36.5857Z" fill="#292F36"/>
<path d="M89.4991 53.5724C89.6418 53.5153 89.7132 53.444 89.7132 53.344C89.7132 53.2869 89.6989 53.2441 89.6704 53.2013C89.6418 53.1585 89.5847 53.0728 89.4991 52.9586C89.285 52.6874 89.1279 52.4019 89.0137 52.1164C88.8995 51.8309 88.8425 51.5026 88.8425 51.1458C88.8282 50.3464 88.9852 49.6612 89.2992 49.0759C89.6275 48.4907 90.0843 48.0482 90.7124 47.7341C91.3262 47.4201 92.0685 47.2631 92.9392 47.2488C93.8385 47.2345 94.6236 47.3773 95.2945 47.6913C95.9654 48.0054 96.4936 48.4336 96.8647 49.0046C97.2359 49.5756 97.4357 50.2179 97.4357 50.9316C97.4357 51.2457 97.4072 51.5312 97.3501 51.7738C97.293 52.0165 97.2073 52.2306 97.1074 52.4162C97.0075 52.6018 96.879 52.8159 96.7077 53.0443C96.6364 53.1442 96.5935 53.2298 96.5935 53.2869C96.5935 53.4297 96.8362 53.5296 97.3073 53.5724V53.8436C96.8076 53.8151 95.9083 53.8151 94.6236 53.8436V53.5724C95.0376 53.501 95.3802 53.4154 95.6514 53.3298C95.9226 53.2441 96.151 53.1156 96.3509 52.9586C96.6221 52.7302 96.8505 52.4305 97.0075 52.0593C97.1645 51.6882 97.2359 51.317 97.2359 50.9174C97.2216 50.4035 97.0503 49.961 96.7077 49.5756C96.3651 49.1901 95.8798 48.9047 95.266 48.6905C94.6379 48.4907 93.9242 48.3908 93.0963 48.405C92.1541 48.4193 91.3976 48.5335 90.7981 48.7476C90.1985 48.9618 89.7703 49.2758 89.4848 49.6898C89.1993 50.1037 89.0708 50.6319 89.0851 51.2742C89.0994 51.7453 89.2279 52.145 89.4705 52.4876C89.5704 52.6303 89.6561 52.716 89.756 52.7588C89.8417 52.8016 89.9701 52.8159 90.1272 52.8159L91.2548 52.8016C91.5832 52.8016 91.8116 52.7588 91.9686 52.7017C92.1113 52.6446 92.2255 52.5304 92.2683 52.3591C92.3254 52.2021 92.354 51.9451 92.354 51.6025H92.5824C92.5681 51.988 92.5538 52.5304 92.5681 53.2584C92.5824 53.8008 92.5967 54.2148 92.6252 54.4717H92.3968C92.3825 54.2861 92.3397 54.1577 92.2969 54.0863C92.2541 54.0149 92.1541 53.9578 92.0257 53.9293C91.8972 53.9007 91.6831 53.8865 91.3833 53.9007L89.0708 53.9436V53.7152C89.1993 53.6581 89.3563 53.6295 89.4991 53.5724Z" fill="#292F36"/>
<path d="M87.8004 65.72C87.3864 65.5915 86.9011 65.463 86.3444 65.3488C86.53 64.8492 86.8012 64.007 87.1866 62.808C87.6434 61.3805 87.9717 60.2956 88.1715 59.5676L88.3999 59.639C88.3286 59.9102 88.3 60.1101 88.3 60.2528C88.3143 60.3956 88.3714 60.4955 88.4856 60.5811C88.5998 60.6668 88.7996 60.7524 89.0708 60.8381L94.5951 62.5796C94.8806 62.6652 95.0804 62.708 95.2232 62.708C95.3659 62.708 95.4801 62.6509 95.5658 62.5367C95.6514 62.4225 95.7371 62.237 95.837 61.98L96.0654 62.0514C95.8084 62.7794 95.4658 63.85 95.009 65.2774C94.6665 66.3623 94.4238 67.1474 94.3096 67.6185C93.8385 67.4186 93.4103 67.2473 93.0106 67.1331C92.7251 67.0475 92.4825 66.9761 92.3112 66.9476L92.3968 66.6906C92.8964 66.7906 93.2818 66.8334 93.5388 66.8334C93.7957 66.8334 94.0098 66.7477 94.1811 66.5764C94.3524 66.4194 94.4952 66.1339 94.6236 65.7485L94.9091 64.8207C94.9948 64.5494 95.0376 64.3496 95.0233 64.2211C95.009 64.0927 94.9662 63.9785 94.852 63.8928C94.7378 63.8072 94.5523 63.7215 94.2668 63.6359L91.6403 62.808L91.4119 63.5502C91.2977 63.9214 91.3262 64.2069 91.5118 64.4067C91.6973 64.6065 91.8972 64.7493 92.1256 64.8492C92.354 64.9491 92.4967 65.0205 92.5538 65.049L92.4682 65.306C92.1113 65.1632 91.7687 65.0348 91.4261 64.9349L90.898 64.7778C90.5268 64.6636 89.9844 64.5066 89.2992 64.3496L89.3849 64.0927C89.442 64.1069 89.6275 64.1355 89.9416 64.2069C90.2556 64.264 90.5268 64.2354 90.741 64.1212C90.9551 64.007 91.0978 63.7929 91.1977 63.4931L91.4261 62.7509L88.7425 61.9087C88.457 61.823 88.2572 61.7802 88.1144 61.7802C87.9717 61.7802 87.8575 61.8373 87.7861 61.9515C87.7005 62.0657 87.6148 62.2512 87.5292 62.5225L87.2722 63.3361C87.1295 63.8072 87.0724 64.1783 87.1295 64.4495C87.1723 64.735 87.3151 64.9634 87.5577 65.1633C87.8004 65.3488 88.1715 65.5629 88.6712 65.7913L88.5855 66.0483C88.4142 65.9198 88.143 65.8342 87.8004 65.72Z" fill="#292F36"/>
<path d="M83.7322 83.2349C83.7893 83.1064 83.775 82.9779 83.7179 82.8495C83.6608 82.721 83.518 82.564 83.3039 82.3498L79.1072 78.3387C78.8931 78.1389 78.7218 78.0104 78.5933 77.9533C78.4649 77.8962 78.3364 77.8962 78.2079 77.9533C78.0794 78.0104 77.9224 78.1389 77.7226 78.3387L77.5513 78.1817C77.8225 77.939 78.1651 77.5822 78.6076 77.1396C79.0644 76.6543 79.407 76.2832 79.6211 76.0405L79.7924 76.1975C79.6068 76.4116 79.4926 76.5829 79.4355 76.6971C79.3784 76.8256 79.3927 76.9541 79.4498 77.0825C79.5069 77.211 79.6496 77.368 79.8638 77.5822L84.0605 81.5933C84.2746 81.7931 84.4459 81.9216 84.5743 81.9787C84.7028 82.0358 84.8313 82.0358 84.9598 81.9787C85.0882 81.9216 85.2453 81.7931 85.4451 81.5933L85.6164 81.7503C85.3737 81.9644 85.0169 82.3213 84.5601 82.8066C84.1176 83.2634 83.7893 83.6346 83.5609 83.9058L83.3896 83.7487C83.5609 83.5346 83.6751 83.3633 83.7322 83.2349Z" fill="#292F36"/>
<path d="M71.8415 91.9423C71.9271 91.8138 71.9414 91.6853 71.9129 91.5283C71.8843 91.3713 71.7844 91.1715 71.6274 90.9002L68.0873 84.8907L68.3157 84.7479L76.3951 88.7876L73.2689 83.4775C73.1119 83.2205 72.9834 83.035 72.855 82.935C72.7265 82.8351 72.5838 82.7923 72.4267 82.8066C72.2697 82.8208 72.0556 82.9065 71.7844 83.0492L71.6559 82.8494C71.9129 82.7352 72.2554 82.5354 72.698 82.2784C73.0976 82.0358 73.3974 81.8502 73.6115 81.6932L73.7257 81.893C73.4973 82.0358 73.3403 82.1785 73.2689 82.307C73.1833 82.4354 73.169 82.5639 73.1976 82.7209C73.2261 82.878 73.326 83.0778 73.4831 83.349L76.3665 88.2452C76.5093 88.5021 76.6377 88.6734 76.7519 88.7591C76.8661 88.8447 76.9803 88.8875 77.1231 88.859C77.2515 88.8304 77.4514 88.7591 77.694 88.6306L77.8082 88.8304C77.5798 88.9446 77.2658 89.1159 76.8518 89.3586C76.5521 89.5299 76.2951 89.7012 76.081 89.8439L69.3006 86.4609L71.8415 90.7718C71.9985 91.0287 72.127 91.2143 72.2554 91.3142C72.3696 91.4141 72.5124 91.4569 72.6837 91.4427C72.855 91.4284 73.0691 91.3428 73.3403 91.2L73.4545 91.3998C73.1976 91.514 72.855 91.7139 72.4125 91.9708C72.0128 92.2135 71.713 92.3991 71.4989 92.5561L71.3847 92.3562C71.5988 92.1992 71.7558 92.0565 71.8415 91.9423Z" fill="#292F36"/>
<path d="M63.9905 93.8123C64.0904 94.2549 64.2189 94.7402 64.3902 95.2541C63.7478 95.3683 62.6772 95.5967 61.1641 95.9107C59.651 96.239 58.5947 96.4817 57.9666 96.6387C57.8953 96.082 57.8239 95.5967 57.724 95.1542C57.6383 94.7687 57.5669 94.4547 57.4813 94.2263L57.7382 94.1692C57.9238 94.7545 58.0951 95.1684 58.2521 95.4396C58.4091 95.7109 58.609 95.8822 58.8659 95.9678C59.1229 96.0535 59.494 96.0392 59.9651 95.9393L60.5789 95.8108L59.18 89.3159C59.1086 89.0018 59.0372 88.7734 58.9373 88.645C58.8374 88.5165 58.7232 88.4308 58.5519 88.4166C58.3806 88.388 58.1236 88.4166 57.7811 88.4737L57.7382 88.2453C58.1379 88.1882 58.7089 88.074 59.4226 87.917C60.1792 87.7457 60.7502 87.6172 61.107 87.5173L61.1498 87.7457C60.8073 87.8313 60.5789 87.917 60.4361 88.0026C60.2934 88.0883 60.2077 88.2167 60.1792 88.3737C60.1506 88.5308 60.1649 88.7734 60.2363 89.0875L61.6352 95.5824L62.249 95.4539C62.72 95.354 63.0626 95.2113 63.2625 95.0257C63.4623 94.8401 63.5765 94.5974 63.6051 94.2977C63.6336 93.9979 63.6193 93.5411 63.548 92.9416L63.8049 92.8845C63.8477 93.1129 63.9048 93.4269 63.9905 93.8123Z" fill="#292F36"/>
<path d="M45.0482 89.8011C45.091 89.3586 45.1053 88.859 45.1053 88.3023C45.6334 88.3736 46.5184 88.4593 47.7746 88.5735C49.2592 88.702 50.3868 88.8019 51.1577 88.8447L51.1434 89.0731C50.8579 89.0588 50.6581 89.0731 50.5296 89.1159C50.4011 89.1587 50.3012 89.2301 50.2441 89.3586C50.187 89.4871 50.1442 89.7012 50.1156 89.9867L49.6017 95.7679C49.5732 96.0533 49.5875 96.2675 49.616 96.4102C49.6446 96.553 49.7302 96.6529 49.8587 96.71C49.9872 96.7671 50.187 96.8242 50.4582 96.8527L50.4439 97.0811C49.6874 96.9955 48.5597 96.8813 47.0752 96.7528C45.9332 96.6529 45.1195 96.5958 44.6342 96.5672C44.7341 96.0676 44.8055 95.6108 44.8341 95.1969C44.8626 94.8971 44.8769 94.6544 44.8626 94.4689L45.1338 94.4974C45.1481 95.0113 45.1766 95.3824 45.248 95.6394C45.3051 95.8963 45.4336 96.0819 45.6334 96.2104C45.819 96.3388 46.133 96.4245 46.5327 96.453L47.5034 96.5387C47.7889 96.5672 47.9887 96.553 48.1172 96.5244C48.2457 96.4959 48.3456 96.4102 48.4027 96.2817C48.4598 96.1533 48.5026 95.9392 48.5312 95.6537L48.7738 92.9129L48.003 92.8416C47.6176 92.813 47.3464 92.8987 47.1894 93.1271C47.0466 93.3555 46.9324 93.5839 46.8896 93.8265C46.8325 94.0692 46.8039 94.2262 46.7897 94.2976L46.5184 94.269C46.5755 93.8836 46.6184 93.5267 46.6612 93.1699L46.704 92.6132C46.7326 92.2135 46.7611 91.6711 46.7897 90.9573L47.0609 90.9859C47.0609 91.043 47.0752 91.2286 47.0752 91.5569C47.0894 91.8852 47.1608 92.1421 47.3321 92.3134C47.4891 92.499 47.7318 92.5989 48.0458 92.6275L48.8167 92.6988L49.0593 89.901C49.0879 89.6155 49.0736 89.4014 49.045 89.2587C49.0165 89.1302 48.9308 89.0303 48.8024 88.9732C48.6739 88.9161 48.4741 88.8733 48.2028 88.8447L47.3464 88.7733C46.861 88.7305 46.4899 88.7591 46.2187 88.8733C45.9617 88.9732 45.7619 89.173 45.6192 89.4442C45.4764 89.7155 45.3622 90.1294 45.248 90.6719L44.9768 90.6433C44.9768 90.4292 45.0053 90.1437 45.0482 89.8011Z" fill="#292F36"/>
<path d="M33.8141 84.5053C34.0282 84.4625 34.2709 84.5053 34.5278 84.6195C34.8276 84.748 35.0274 84.9335 35.1416 85.1762C35.2558 85.4331 35.2701 85.79 35.1987 86.2611L34.9846 87.4316C34.9132 87.8455 34.8704 88.1596 34.8562 88.4022C34.8419 88.6306 34.899 88.8447 34.9989 89.0303C35.0988 89.2159 35.2844 89.3586 35.5556 89.4728L36.5834 89.9011L37.6254 87.4173C37.7396 87.1461 37.7967 86.9462 37.811 86.8035C37.8253 86.6607 37.7682 86.5465 37.6682 86.4466C37.5683 86.3467 37.397 86.2468 37.1401 86.1326L37.2257 85.9185C37.554 86.0755 37.9966 86.2753 38.5818 86.518C39.1956 86.7749 39.6667 86.9605 39.9807 87.0604L39.8951 87.2745C39.6238 87.1746 39.424 87.1318 39.2955 87.1175C39.1528 87.1175 39.0386 87.1603 38.9529 87.2745C38.853 87.3745 38.7531 87.56 38.6389 87.8313L36.3978 93.1842C36.2836 93.4554 36.2265 93.6553 36.2122 93.798C36.198 93.9408 36.2551 94.0549 36.355 94.1549C36.4549 94.2548 36.6262 94.3547 36.8831 94.4832L36.7975 94.6973C36.4977 94.5546 36.0695 94.3547 35.4985 94.1121C35.213 93.9979 34.9133 93.8694 34.5707 93.7266C34.2281 93.5839 33.9997 93.4982 33.8712 93.4411C33.3145 93.1985 32.872 92.9273 32.5437 92.599C32.2154 92.2706 32.0298 91.928 31.9441 91.5569C31.8585 91.1858 31.9013 90.8289 32.0583 90.472C32.1725 90.1866 32.3581 89.9296 32.6151 89.7012C32.872 89.4728 33.2003 89.3015 33.6 89.2159C33.9997 89.1302 34.485 89.1445 35.0132 89.273L34.8847 89.2016C34.5849 89.016 34.3565 88.8305 34.2138 88.6306C34.0711 88.4451 33.9711 88.2309 33.9426 88.0025C33.8998 87.7742 33.914 87.4887 33.9711 87.1461L34.171 85.9327C34.2138 85.6901 34.2423 85.5045 34.2423 85.3618C34.2423 85.219 34.2281 85.1048 34.1852 85.0192C34.1424 84.9335 34.0711 84.8622 33.9711 84.8336C33.8569 84.7765 33.7427 84.7765 33.6428 84.8051C33.5429 84.8336 33.4002 84.905 33.2146 85.0049L33.1004 84.8193C33.3573 84.6623 33.6 84.5481 33.8141 84.5053ZM34.5278 89.587C34.1852 89.6298 33.914 89.7583 33.6999 89.9724C33.4858 90.1866 33.3002 90.472 33.1432 90.8432C32.9005 91.4284 32.8434 91.9423 33.0005 92.3563C33.1575 92.7702 33.5429 93.1128 34.1852 93.384C34.4136 93.484 34.5849 93.5268 34.7277 93.5125C34.8562 93.5125 34.9703 93.4554 35.0703 93.3412C35.1702 93.227 35.2701 93.0415 35.37 92.7845L36.4835 90.1295L35.7555 89.8297C35.2844 89.6298 34.8704 89.5442 34.5278 89.587Z" fill="#292F36"/>
<path d="M22.68 86.4467C22.8084 86.4895 22.9369 86.4609 23.0511 86.3896C23.1653 86.3182 23.3223 86.1612 23.5079 85.9328L27.0908 81.3649C27.2764 81.1365 27.3906 80.951 27.4334 80.8225C27.4762 80.694 27.4619 80.5656 27.3906 80.4514C27.3192 80.3372 27.1765 80.1801 26.9623 79.9946L27.1051 79.809C27.3763 80.0517 27.7474 80.3657 28.247 80.7511C28.7752 81.1651 29.1749 81.4648 29.4461 81.6504L29.3034 81.836C29.075 81.6647 28.8894 81.5648 28.7609 81.5362C28.6325 81.4934 28.504 81.5077 28.3898 81.5933C28.2756 81.6647 28.1186 81.8217 27.933 82.0501L24.3501 86.618C24.1645 86.8463 24.0503 87.0319 24.0075 87.1604C23.9647 87.2889 23.979 87.4173 24.0503 87.5315C24.1217 87.6457 24.2644 87.8027 24.4786 87.9883L24.3358 88.1739C24.0932 87.9598 23.7077 87.6457 23.1796 87.2175C22.68 86.8321 22.2803 86.5323 21.9948 86.3325L22.1375 86.1469C22.3802 86.3039 22.5515 86.4038 22.68 86.4467Z" fill="#292F36"/>
<path d="M13.4586 76.2832C13.4015 75.6408 13.5443 74.9985 13.8726 74.3847C14.2152 73.7566 14.7291 73.1999 15.4428 72.6718C16.1422 72.1721 16.8417 71.8438 17.5697 71.7154C18.2977 71.5869 18.9686 71.6297 19.5967 71.8724C20.2248 72.115 20.7529 72.529 21.1669 73.1143C21.6094 73.7138 21.852 74.3419 21.9091 74.9842C21.9662 75.6266 21.8235 76.2689 21.4952 76.8827C21.1526 77.5108 20.6387 78.0675 19.925 78.5957C19.2255 79.0953 18.5261 79.4236 17.7981 79.5521C17.0844 79.6805 16.3992 79.6377 15.7711 79.3951C15.143 79.1524 14.6149 78.7384 14.2009 78.1674C13.7584 77.5536 13.5157 76.9256 13.4586 76.2832ZM15.5998 78.8241C16.0994 78.924 16.6704 78.8812 17.2985 78.6813C17.9266 78.4815 18.5546 78.1532 19.2113 77.6678C19.8679 77.1968 20.3818 76.6829 20.7386 76.1405C21.1098 75.598 21.3096 75.0556 21.3382 74.5417C21.381 74.0278 21.2525 73.571 20.9813 73.1856C20.6815 72.7859 20.2961 72.529 19.7822 72.4291C19.2826 72.3292 18.7117 72.372 18.0836 72.5718C17.4555 72.7717 16.8274 73.1 16.1708 73.571C15.5142 74.0421 15.0003 74.556 14.6434 75.1127C14.2723 75.6551 14.0724 76.1833 14.0296 76.7114C13.9868 77.2253 14.1153 77.6821 14.3865 78.0675C14.6862 78.4672 15.0859 78.7242 15.5998 78.8241Z" fill="#292F36"/>
<path d="M14.5578 59.0966C14.729 59.2251 14.8575 59.4392 14.9432 59.7247C15.0431 60.0245 15.0288 60.31 14.9146 60.5526C14.8004 60.8096 14.5292 61.0523 14.1152 61.2949L13.0732 61.8802C12.7163 62.0943 12.4451 62.2656 12.2596 62.4083C12.074 62.5511 11.9455 62.7224 11.8741 62.9222C11.8028 63.1221 11.8028 63.3505 11.8884 63.636L12.2167 64.7065L14.7861 63.9072C15.0716 63.8215 15.2572 63.7359 15.3714 63.6502C15.4856 63.5646 15.5427 63.4504 15.557 63.3219C15.5712 63.1934 15.5284 62.9793 15.4571 62.7081L15.6854 62.6367C15.7711 62.9793 15.8996 63.4647 16.0994 64.0642C16.2992 64.7065 16.4563 65.1776 16.5705 65.4774L16.3421 65.5487C16.2421 65.2775 16.1565 65.0919 16.0709 64.992C15.9852 64.8921 15.871 64.8207 15.7283 64.8207C15.5855 64.8207 15.3714 64.8493 15.1002 64.9492L9.56167 66.6622C9.27618 66.7478 9.09061 66.8335 8.97641 66.9191C8.86222 67.0047 8.80512 67.1189 8.79084 67.2474C8.77657 67.3902 8.81939 67.59 8.89076 67.8612L8.66237 67.9326C8.591 67.6185 8.46253 67.1618 8.27696 66.5622C8.19131 66.2767 8.07712 65.9484 7.96292 65.6058C7.84872 65.2632 7.76308 65.0206 7.72025 64.8921C7.53468 64.3068 7.47758 63.793 7.52041 63.3362C7.56323 62.8794 7.70598 62.5083 7.93437 62.2085C8.16276 61.9087 8.46253 61.7089 8.83367 61.5947C9.11916 61.509 9.4332 61.4805 9.77579 61.5233C10.1184 61.5661 10.4467 61.7089 10.7893 61.9658C11.1319 62.2228 11.4174 62.5939 11.66 63.0935L11.6457 62.9508C11.6029 62.5939 11.5887 62.3084 11.6457 62.0658C11.7028 61.8231 11.8028 61.6232 11.9455 61.4519C12.1025 61.2807 12.3309 61.0951 12.6307 60.9238L13.687 60.2957C13.9011 60.1815 14.0724 60.0673 14.1723 59.9817C14.2723 59.896 14.3579 59.8104 14.4007 59.7247C14.4436 59.6391 14.4436 59.5392 14.415 59.4392C14.3722 59.3108 14.3151 59.2251 14.2294 59.168C14.1438 59.1109 14.001 59.0396 13.8012 58.9682L13.8726 58.7541C14.1581 58.854 14.4007 58.9682 14.5578 59.0966ZM11.1461 62.9222C10.9035 62.6938 10.618 62.5654 10.3182 62.5368C10.0185 62.5083 9.67586 62.5511 9.29045 62.6796C8.67665 62.8651 8.26268 63.1649 8.03429 63.5503C7.8059 63.9357 7.8059 64.4639 8.00574 65.1062C8.07712 65.3346 8.16276 65.5059 8.24841 65.6058C8.33406 65.7058 8.46253 65.7629 8.60527 65.7629C8.74802 65.7629 8.96214 65.72 9.21908 65.6487L11.9598 64.7922L11.7314 64.0356C11.5887 63.5218 11.3888 63.1506 11.1461 62.9222Z" fill="#292F36"/>
<path d="M13.4586 45.5501C14.0011 45.3074 14.3294 44.8506 14.4721 44.1655C14.5149 43.9085 14.5149 43.6516 14.4436 43.4089C14.3722 43.1663 14.2437 42.9521 14.0439 42.7666C13.844 42.581 13.5728 42.4525 13.216 42.3954C12.9162 42.3383 12.645 42.3669 12.388 42.4668C12.1311 42.5667 11.8742 42.7237 11.6315 42.9379C11.3888 43.152 11.1033 43.4375 10.7893 43.7943C10.4324 44.194 10.1184 44.5223 9.84717 44.7507C9.57596 44.9934 9.27619 45.1647 8.94788 45.2932C8.61956 45.4216 8.24843 45.4359 7.83446 45.3645C7.40623 45.2789 7.04936 45.1219 6.79242 44.8649C6.53548 44.608 6.34991 44.3082 6.26427 43.9514C6.17862 43.5945 6.17862 43.2234 6.24999 42.8237C6.29281 42.581 6.34991 42.3954 6.42129 42.2241C6.49266 42.0528 6.56403 41.9244 6.64968 41.8244C6.73532 41.7245 6.82097 41.6103 6.93517 41.4961C7.07791 41.3391 7.14929 41.2249 7.17783 41.1393C7.19211 41.0679 7.16356 41.0108 7.09219 40.9537C7.02082 40.8966 6.89234 40.8538 6.72105 40.7967L6.76387 40.5397C7.20638 40.6539 7.97721 40.8252 9.1049 41.0393L9.06207 41.2963C8.66239 41.2535 8.29125 41.2677 7.92011 41.3534C7.56325 41.4248 7.24921 41.5818 6.99227 41.8244C6.73532 42.0528 6.56403 42.3811 6.49266 42.7808C6.43556 43.0521 6.44983 43.2947 6.52121 43.5374C6.59258 43.7801 6.72105 43.9656 6.89234 44.1226C7.07791 44.2797 7.29203 44.3796 7.54897 44.4367C7.96293 44.5081 8.3198 44.451 8.61956 44.2511C8.91933 44.0513 9.20482 43.7943 9.47604 43.4946C9.74725 43.1948 9.91855 42.995 10.0185 42.895C10.4182 42.4668 10.7465 42.1385 11.0177 41.8958C11.2889 41.6532 11.5887 41.4819 11.917 41.3677C12.2453 41.2535 12.6022 41.2392 12.9876 41.3106C13.4586 41.3962 13.844 41.5818 14.1295 41.853C14.415 42.1385 14.6006 42.4668 14.7005 42.8665C14.8004 43.2662 14.8004 43.6944 14.7148 44.1512C14.6434 44.5223 14.5578 44.8078 14.4293 45.0362C14.3151 45.2646 14.1581 45.4645 13.9868 45.65C13.844 45.807 13.7727 45.9212 13.7441 46.0069C13.7298 46.0783 13.7584 46.1354 13.8298 46.1925C13.9011 46.2496 14.0296 46.3067 14.2009 46.3495L14.1581 46.6064C13.7441 46.4922 12.8306 46.3066 11.4174 46.0497L11.4602 45.7928C12.2596 45.8641 12.9162 45.7928 13.4586 45.5501Z" fill="#292F36"/>
<path d="M10.6323 33.5166C10.2326 33.3025 9.7758 33.1026 9.26191 32.9028C9.57595 32.3461 10.1041 31.3754 10.8178 29.9908C11.5316 28.6204 12.0312 27.6497 12.3024 27.0645C12.7734 27.3643 13.2017 27.6212 13.5871 27.821C13.9297 28.0066 14.2295 28.1351 14.4578 28.235L14.3294 28.4777C13.7584 28.2493 13.3302 28.1065 13.0304 28.0637C12.7306 28.0066 12.4594 28.0637 12.231 28.2064C12.0026 28.3492 11.7742 28.6347 11.5601 29.0629L11.2746 29.6339L17.17 32.7029C17.4555 32.8599 17.6839 32.9313 17.8409 32.9456C17.9979 32.9599 18.1407 32.917 18.2691 32.8028C18.3976 32.6887 18.5404 32.4745 18.7117 32.1748L18.9258 32.289C18.7117 32.6458 18.4404 33.1454 18.0978 33.8021C17.741 34.4872 17.484 35.0154 17.327 35.3437L17.1129 35.2295C17.2557 34.9155 17.3556 34.6728 17.3698 34.5158C17.3984 34.3445 17.3556 34.2018 17.2414 34.0733C17.1272 33.9448 16.9416 33.8163 16.6561 33.6593L10.7607 30.576L10.461 31.1327C10.2326 31.561 10.1327 31.9036 10.1469 32.1748C10.1612 32.446 10.2754 32.6887 10.4895 32.9028C10.7036 33.1169 11.0605 33.4024 11.5744 33.7307L11.4459 33.9734C11.2603 33.8592 10.9749 33.7021 10.6323 33.5166Z" fill="#292F36"/>
<path d="M20.7101 17.1152C20.9528 16.8726 21.1526 16.6442 21.2953 16.4729L21.4666 16.6442C21.381 16.7727 21.3382 16.9582 21.3524 17.1723C21.3667 17.3865 21.4238 17.6862 21.538 18.0431L22.837 21.9115L24.3501 23.4103C24.5642 23.6102 24.7212 23.7529 24.8497 23.81C24.9782 23.8671 25.1066 23.8671 25.2351 23.81C25.3636 23.7529 25.5206 23.6244 25.7347 23.4389L25.906 23.6102C25.6348 23.8528 25.2779 24.1954 24.8354 24.6379C24.3644 25.109 24.0218 25.4801 23.8077 25.7228L23.6364 25.5515C23.8219 25.3374 23.9504 25.1804 24.0075 25.0519C24.0646 24.9234 24.0646 24.7949 23.9932 24.6665C23.9361 24.538 23.7934 24.3667 23.5935 24.1669L22.3374 22.925L17.5697 21.5261C17.2842 21.4404 17.0701 21.4119 16.9273 21.4262C16.7846 21.4404 16.6847 21.4833 16.6133 21.5546L16.442 21.3833C16.6704 21.1835 16.9273 20.9551 17.1843 20.6839C17.7124 20.1414 18.0978 19.756 18.312 19.4991L18.4833 19.6704C18.0978 20.0558 18.0122 20.3556 18.2263 20.5697C18.312 20.6553 18.4262 20.7124 18.5975 20.7695L22.6086 22.0114L21.5523 18.8567C21.3953 18.4 21.2382 18.0859 21.067 17.9289C20.9099 17.7719 20.7386 17.7291 20.5531 17.7861C20.3675 17.8432 20.1534 17.986 19.8964 18.2287L19.7251 18.0574C20.0677 17.7433 20.3818 17.4293 20.7101 17.1152Z" fill="#292F36"/>
<path d="M29.3462 11.3626C29.2606 11.4626 29.2177 11.591 29.2463 11.7338C29.2748 11.8765 29.3462 12.0764 29.4889 12.3333L32.2439 17.4436C32.3867 17.7005 32.5009 17.8718 32.6151 17.9717C32.715 18.0717 32.8435 18.1002 32.9719 18.0859C33.1004 18.0717 33.3002 17.986 33.5429 17.8575L34.2995 17.4436C34.7277 17.2152 35.0275 16.9725 35.1845 16.7299C35.3415 16.4872 35.3986 16.216 35.3558 15.8877C35.313 15.5594 35.1845 15.1454 34.9561 14.603L35.1988 14.4745C35.2987 14.7029 35.4414 14.9884 35.627 15.331C35.8411 15.7164 36.0981 16.1446 36.4121 16.6157C35.941 16.8441 35.1417 17.258 34.0425 17.8575C32.7293 18.5713 31.73 19.1137 31.0734 19.4991L30.9592 19.2993C31.2019 19.1565 31.3732 19.0281 31.4588 18.9281C31.5445 18.8282 31.5873 18.6997 31.5588 18.557C31.5302 18.4143 31.4588 18.2144 31.3161 17.9575L28.5326 12.8472C28.3898 12.5902 28.2756 12.419 28.1614 12.319C28.0615 12.2191 27.933 12.1906 27.8046 12.2048C27.6618 12.2191 27.4762 12.2905 27.2193 12.419L27.1194 12.2048C27.4191 12.0764 27.8616 11.848 28.4469 11.5197C29.0036 11.2199 29.4318 10.9772 29.7316 10.7917L29.8458 10.9915C29.6031 11.1342 29.4461 11.2627 29.3462 11.3626Z" fill="#292F36"/>
<path d="M46.7326 12.2761C46.8182 12.7043 46.9467 13.1897 47.1037 13.7321C46.5756 13.8177 45.7048 13.9748 44.4772 14.2174C43.0069 14.5029 41.9078 14.7313 41.1512 14.9026L41.1084 14.6742C41.3796 14.6028 41.5795 14.5457 41.6937 14.4601C41.8079 14.3887 41.8792 14.2745 41.8935 14.146C41.9078 14.0033 41.8935 13.7892 41.8364 13.5037L40.723 7.80815C40.6659 7.52266 40.6088 7.32282 40.5231 7.19435C40.4375 7.06588 40.3519 6.9945 40.2091 6.98023C40.0806 6.95168 39.8665 6.96595 39.5953 7.00878L39.5525 6.78039C40.309 6.65191 41.4224 6.45207 42.8784 6.16658C44.0061 5.93819 44.8055 5.78117 45.2623 5.66697C45.3051 6.18085 45.3765 6.63764 45.4479 7.03733C45.505 7.33709 45.5621 7.56549 45.6192 7.73678L45.3622 7.79388C45.2052 7.30854 45.0625 6.95168 44.934 6.72329C44.8055 6.49489 44.6199 6.35215 44.4058 6.28078C44.1774 6.2094 43.8777 6.2094 43.4637 6.29505L42.5073 6.48062C42.2361 6.53772 42.0362 6.59482 41.9221 6.66619C41.8079 6.73756 41.7365 6.83748 41.7079 6.98023C41.6937 7.12297 41.7079 7.33709 41.765 7.62258L42.2932 10.3347L43.0497 10.1777C43.4352 10.1064 43.6635 9.93506 43.7492 9.67812C43.8348 9.42117 43.8634 9.17851 43.8491 8.93584C43.8348 8.69317 43.8206 8.53615 43.8206 8.46478L44.0775 8.40768C44.1203 8.79309 44.1774 9.14996 44.2488 9.49255L44.363 10.035C44.4344 10.4204 44.5628 10.9628 44.7484 11.648L44.4915 11.7051C44.4772 11.648 44.4201 11.4767 44.3202 11.1627C44.2203 10.8486 44.0775 10.6345 43.8634 10.506C43.6493 10.3776 43.4066 10.349 43.0926 10.4061L42.336 10.5489L42.8784 13.3038C42.9355 13.5893 42.9926 13.7892 43.064 13.9177C43.1354 14.0318 43.2353 14.1032 43.3781 14.1318C43.5065 14.146 43.7206 14.1318 43.9919 14.0747L44.8341 13.9034C45.3051 13.8035 45.662 13.675 45.8904 13.5037C46.1188 13.3324 46.2472 13.0897 46.3043 12.79C46.3614 12.4902 46.3614 12.062 46.3186 11.5053L46.5756 11.4482C46.6184 11.6623 46.6612 11.9335 46.7326 12.2761Z" fill="#292F36"/>
<path d="M37.1115 66.7905C36.4549 65.9055 35.8839 64.9348 35.3843 63.8643C34.8847 62.7937 34.485 61.7088 34.1852 60.5954C33.5286 55.6992 33.5143 50.9458 34.1281 46.3351C34.7419 41.7244 35.7411 37.1852 37.1115 32.7029C37.3399 32.2033 37.8395 31.9607 38.6103 31.9607C39.3812 31.9607 40.1377 32.132 40.9085 32.4746C41.6794 32.8171 42.3074 33.2739 42.807 33.8449C43.3066 34.4159 43.4208 35.0154 43.1496 35.6292C42.7214 36.5428 42.3074 37.7847 41.8935 39.3263C41.4795 40.8823 41.0655 42.5952 40.6944 44.4652C40.309 46.3351 39.9807 48.305 39.6952 50.3463C39.4097 52.3875 39.1956 54.3574 39.0671 56.2274C38.9386 58.0973 38.9101 59.796 38.9815 61.3091C39.0528 62.8222 39.2812 64.0213 39.6666 64.892C41.4652 62.4796 43.1068 59.9816 44.6056 57.3979C46.1045 54.8142 47.5034 52.202 48.8166 49.5326C50.1299 46.8776 51.386 44.1939 52.5708 41.4675C53.7556 38.7553 54.9261 36.0717 56.0681 33.4309C56.6391 32.0891 57.21 30.676 57.7668 29.1914C58.3235 27.6926 59.0515 26.4222 59.9793 25.3516C60.3647 25.009 60.6645 24.8948 60.8643 25.009C61.0784 25.1232 61.2212 25.3373 61.2926 25.6656C61.3639 25.9939 61.4068 26.3365 61.4068 26.6934C61.4068 27.0502 61.4068 27.3357 61.4068 27.5213C61.1355 29.2771 60.9072 31.0186 60.7216 32.7458C60.536 34.473 60.1221 36.1288 59.5225 37.7419C58.5233 40.2684 57.5098 42.7665 56.4535 45.2645C55.3972 47.7483 54.2695 50.2035 53.0704 52.6159C51.8714 55.0283 50.5581 57.3693 49.1735 59.639C47.7746 61.9229 46.2615 64.0927 44.6056 66.1482C43.3066 67.7898 42.0077 68.6605 40.7372 68.7604C39.4097 68.8746 38.2249 68.2037 37.1115 66.7905Z" fill="#292F36"/>
<path d="M60.7501 60.3099C59.9793 59.2393 59.2228 58.1544 58.4805 57.041C57.7382 55.9276 57.3671 54.7143 57.3671 53.3725C57.3671 51.8879 57.7953 50.4747 58.6518 49.1472C59.5082 47.8339 60.4932 46.7634 61.6066 45.964C62.0634 45.6642 62.5344 45.4073 63.0055 45.2217C63.4766 45.0361 63.9905 45.0504 64.5329 45.2788C64.7613 45.393 65.0039 45.4786 65.2466 45.5357C65.4893 45.5928 65.7177 45.6642 65.9032 45.7356C66.0888 45.807 66.3029 45.9212 66.5313 46.0782C66.7597 46.2352 66.8739 46.435 66.8739 46.7063C66.8739 47.7769 66.9025 48.6476 66.9595 49.3185C67.0166 49.9894 67.1023 50.5604 67.2165 51.0457C67.3307 51.5311 67.4449 51.945 67.5591 52.3019C67.6733 52.673 67.7875 53.0584 67.9017 53.4724C67.973 53.8578 67.9588 54.1861 67.8446 54.4431C67.7304 54.7143 67.4449 54.7428 66.9881 54.5573C66.1459 54.2575 65.5178 53.6437 65.1181 52.7158C64.7184 51.788 64.4187 50.9601 64.2331 50.1892C64.1903 50.0322 64.1046 49.7753 63.9476 49.3899C63.7906 49.0045 63.705 48.7332 63.6621 48.5905C63.3624 48.5191 62.9912 48.619 62.5773 48.9045C62.1633 49.19 61.7779 49.5897 61.4639 50.0751C61.1355 50.5747 60.9214 51.1456 60.8358 51.8023C60.7359 52.4589 60.8643 53.1013 61.2069 53.7579C61.3639 53.9863 61.5781 54.2718 61.8635 54.5858C62.149 54.9141 62.4345 55.2424 62.72 55.585C63.0055 55.9276 63.291 56.2702 63.5765 56.5842C63.862 56.8983 64.1046 57.1695 64.2902 57.3551C64.5186 57.5835 64.6756 57.7119 64.747 57.7262C64.8184 57.7405 65.0182 57.6977 65.318 57.5835C65.7034 57.3979 66.2887 57.1409 67.0738 56.8412C67.8589 56.5414 68.6868 56.2274 69.5432 55.9276C70.3997 55.6278 71.2276 55.3709 72.0127 55.1568C72.7978 54.9427 73.3974 54.8427 73.8256 54.8427C74.0968 54.8427 74.2824 54.9427 74.3966 55.1282C74.5108 55.2424 74.4965 55.3995 74.3395 55.585C74.1825 55.7706 73.9826 55.9704 73.74 56.156C73.4973 56.3416 73.2261 56.5129 72.9691 56.6699C72.6979 56.8269 72.5266 56.9126 72.4553 56.9554C71.7986 57.3408 70.985 57.769 69.9858 58.2544C68.9865 58.7254 68.1301 59.1965 67.4021 59.6533C67.3307 59.7246 67.188 59.8103 66.9738 59.8817C66.7597 59.953 66.6027 60.0387 66.4885 60.1101C66.9453 61.1378 67.2736 62.0371 67.4592 62.7794C67.6447 63.5217 67.7161 64.2354 67.659 64.9348C67.6019 65.62 67.4592 66.3195 67.2308 67.0332C67.0024 67.7469 66.6883 68.5606 66.3172 69.4741C65.7748 70.3592 65.2323 71.2014 64.6756 72.0007C64.1189 72.8001 63.5051 73.5281 62.8057 74.1847C62.1205 74.8414 61.3639 75.3552 60.5646 75.7264C59.7652 76.1118 58.8802 76.2974 57.9238 76.2974C57.3813 76.2974 56.8675 76.226 56.3678 76.0975C55.8682 75.9691 55.4543 75.6836 55.1117 75.2696C54.2267 74.3132 53.7413 73.2712 53.6271 72.1435C53.5129 71.0158 53.6129 69.9024 53.9126 68.789C54.141 68.1038 54.4265 67.4757 54.7691 66.8905C55.6113 65.4345 56.5391 64.2068 57.5526 63.1934C58.5804 62.1941 59.6367 61.2235 60.7501 60.3099ZM62.7057 62.8936C62.2775 63.3218 61.7065 63.9214 60.9785 64.7065C60.2505 65.4916 59.5796 66.348 58.9373 67.2616C58.3092 68.1752 57.7953 69.0887 57.3956 69.988C56.9959 70.8873 56.896 71.6581 57.0816 72.3148C57.8524 71.9722 58.6375 71.4012 59.4369 70.6161C60.2362 69.831 60.95 68.9745 61.5638 68.0324C62.1776 67.0903 62.6058 66.1624 62.8485 65.2489C63.0912 64.321 63.0483 63.5359 62.7057 62.8936Z" fill="#292F36"/>
<path d="M51.4431 83.5489C33.5857 83.5489 19.0542 69.0174 19.0542 51.16C19.0542 33.3025 33.5857 18.771 51.4431 18.771C69.3006 18.771 83.8321 33.3025 83.8321 51.16C83.8321 69.0174 69.3006 83.5489 51.4431 83.5489ZM51.4431 20.1985C34.3708 20.1985 20.4817 34.0876 20.4817 51.16C20.4817 68.2323 34.3708 82.1214 51.4431 82.1214C68.5155 82.1214 82.4046 68.2323 82.4046 51.16C82.4046 34.0876 68.5155 20.1985 51.4431 20.1985Z" fill="#292F36"/>
</svg>
