<svg width="118" height="48" viewBox="0 0 118 48" fill="none" xmlns="http://www.w3.org/2000/svg">
<path d="M0.683105 29.7841V0.578383H17.8839V29.7698H0.683105V29.7841ZM15.7999 22.9894L16.2424 19.7634L14.6436 19.6063L14.1583 22.0901C13.1591 22.5897 11.9314 22.8324 10.4612 22.8324C8.46274 22.8324 6.87825 22.2043 5.72201 20.9339C4.5515 19.6634 3.98052 17.9933 3.98052 15.9092C3.98052 13.8822 4.5515 12.2121 5.67919 10.8989C6.80688 9.58562 8.29147 8.92899 10.1329 8.92899C11.075 8.92899 11.8744 9.04318 12.5167 9.2573C13.1591 9.47142 13.7443 9.75691 14.301 10.128L14.7721 12.5833L16.3994 12.4262L15.9283 9.2002C15.2432 8.61495 14.4295 8.14389 13.4874 7.77275C12.5452 7.41589 11.3748 7.23032 9.99013 7.23032C8.34856 7.23032 6.93538 7.63 5.75059 8.44365C4.56581 9.2573 3.63796 10.3279 2.98133 11.6554C2.3247 12.9972 1.99638 14.439 1.99638 15.9806C1.99638 18.4216 2.75293 20.4628 4.26603 22.0901C5.77913 23.7174 7.74901 24.5311 10.19 24.5311C12.5881 24.5311 14.4581 24.0172 15.7999 22.9894Z" fill="#292F36"/>
<path d="M23.7223 29.7841V0.578369H31.1165V29.7698H23.7223V29.7841ZM24.5073 24.2741H30.3456V22.8038H28.3329V6.5023H24.4788V7.97258H26.5201V22.8038H24.5073V24.2741Z" fill="#292F36"/>
<path d="M36.9547 29.7841V0.578369H49.9446V29.7698H36.9547V29.7841ZM39.31 13.6538L38.8961 16.3089L40.3949 16.4945L40.8374 14.5103C41.4798 14.1963 42.2078 14.0393 43.0642 14.0393C44.092 14.0393 44.7915 14.2962 45.1483 14.8101C45.5052 15.324 45.6765 15.9949 45.6765 16.8228V17.8506C45.3625 17.822 45.0341 17.7935 44.6773 17.7792C44.3204 17.7649 43.9778 17.7506 43.6352 17.7506C42.3505 17.7506 41.1229 17.979 39.9809 18.4358C38.839 18.8926 38.268 19.849 38.268 21.2907C38.268 22.5183 38.6534 23.3605 39.4385 23.8173C40.2236 24.2884 40.9944 24.5168 41.751 24.5168C42.6788 24.5168 43.4782 24.2741 44.1348 23.7888C44.7914 23.3034 45.3054 22.761 45.6765 22.1329V22.19C45.705 23.7459 46.4045 24.5168 47.7749 24.5168C48.303 24.5168 48.8026 24.3883 49.2737 24.1314L49.2451 22.9466C49.0167 23.0465 48.7598 23.1036 48.4743 23.1036C47.8177 23.1036 47.4893 22.6896 47.4893 21.8617V16.3946C47.4893 13.8251 46.119 12.5404 43.3783 12.5404C42.6217 12.5404 41.908 12.6261 41.2371 12.7974C40.5519 12.9829 39.9095 13.2684 39.31 13.6538ZM45.6622 19.9632C45.5908 20.9053 45.2054 21.6619 44.506 22.2043C43.8065 22.761 43.0642 23.0322 42.2649 23.0322C41.7653 23.0322 41.2799 22.8895 40.8232 22.6183C40.3521 22.347 40.1237 21.8332 40.1237 21.0909C40.1237 20.1916 40.4806 19.6206 41.1657 19.3494C41.8652 19.0782 42.636 18.9497 43.5067 18.9497C43.8922 18.9497 44.2633 18.964 44.6201 19.0068C44.977 19.0353 45.3339 19.0639 45.6479 19.0782V19.9632H45.6622Z" fill="#292F36"/>
<path d="M55.7971 29.7841V0.578369H67.6022V29.7698H55.7971V29.7841ZM66.3603 20.9481C66.3603 20.0346 66.1176 19.3637 65.6323 18.9211C65.1469 18.4786 64.5617 18.1789 63.8479 18.0076C63.1342 17.8363 62.4348 17.6935 61.7353 17.5793C61.0359 17.4651 60.4364 17.2796 59.951 17.0369C59.4657 16.7942 59.223 16.366 59.223 15.7522C59.223 15.1669 59.4514 14.7387 59.9225 14.4532C60.3935 14.1677 60.9788 14.0393 61.7068 14.0393C62.549 14.0393 63.3341 14.2248 64.0621 14.6102L64.3476 16.4659L65.8464 16.2804L65.5609 13.5967C65.0756 13.297 64.4903 13.0543 63.7909 12.8545C63.0914 12.6546 62.3491 12.5404 61.5498 12.5404C60.4935 12.5404 59.5228 12.7974 58.6235 13.297C57.7242 13.7966 57.2817 14.6531 57.2817 15.8807C57.2817 16.78 57.5243 17.4366 58.0097 17.8506C58.495 18.2788 59.0946 18.5643 59.8226 18.7356C60.5506 18.9069 61.2643 19.0496 61.978 19.1781C62.6917 19.2923 63.2913 19.4921 63.7766 19.7491C64.2619 20.006 64.5046 20.4485 64.5046 21.0909C64.5046 21.7475 64.1905 22.2328 63.5624 22.5469C62.9344 22.8609 62.2207 23.0179 61.407 23.0179C60.4934 23.0179 59.637 22.8324 58.8519 22.447L58.9233 20.9196L57.4815 20.7626L57.1247 23.3748C57.6243 23.7031 58.2809 23.9743 59.0803 24.1884C59.8796 24.4026 60.679 24.5168 61.4927 24.5168C62.8773 24.5168 64.0336 24.2027 64.9614 23.5604C65.8892 22.9466 66.3603 22.0615 66.3603 20.9481Z" fill="#292F36"/>
<path d="M73.4405 29.7841V0.578369H85.2455V29.7698H73.4405V29.7841ZM84.0036 20.9481C84.0036 20.0346 83.7609 19.3637 83.2756 18.9211C82.7902 18.4786 82.205 18.1789 81.4913 18.0076C80.7775 17.8363 80.0781 17.6935 79.3787 17.5793C78.6792 17.4651 78.0797 17.2796 77.5943 17.0369C77.109 16.7942 76.8663 16.366 76.8663 15.7522C76.8663 15.1669 77.0947 14.7387 77.5658 14.4532C78.0368 14.1677 78.6221 14.0393 79.3501 14.0393C80.1923 14.0393 80.9774 14.2248 81.7054 14.6102L81.9909 16.4659L83.4897 16.2804L83.2042 13.5967C82.7189 13.297 82.1336 13.0543 81.4342 12.8545C80.7347 12.6546 79.9925 12.5404 79.1931 12.5404C78.1368 12.5404 77.1661 12.7974 76.2668 13.297C75.3675 13.7966 74.925 14.6531 74.925 15.8807C74.925 16.78 75.1677 17.4366 75.653 17.8506C76.1384 18.2788 76.7379 18.5643 77.4659 18.7356C78.1939 18.9069 78.9076 19.0496 79.6213 19.1781C80.335 19.2923 80.9346 19.4921 81.4199 19.7491C81.9052 20.006 82.1479 20.4485 82.1479 21.0909C82.1479 21.7475 81.8339 22.2328 81.2058 22.5469C80.5778 22.8609 79.864 23.0179 79.0504 23.0179C78.1368 23.0179 77.2803 22.8324 76.4952 22.447L76.5666 20.9196L75.1249 20.7626L74.768 23.3748C75.2676 23.7031 75.9242 23.9743 76.7236 24.1884C77.523 24.4026 78.3224 24.5168 79.136 24.5168C80.5206 24.5168 81.6769 24.2027 82.6047 23.5604C83.5326 22.9466 84.0036 22.0615 84.0036 20.9481Z" fill="#292F36"/>
<path d="M91.0838 29.7841V0.578369H98.8634V29.7698H91.0838V29.7841ZM92.2257 24.2741H98.0641V22.8038H96.0513V12.7831H92.183V14.2534H94.2527V22.8038H92.24V24.2741H92.2257ZM94.0529 7.4587V9.814H96.0228V7.4587H94.0529Z" fill="#292F36"/>
<path d="M104.702 29.7841V0.578369H117.135V29.7698H104.702V29.7841ZM116.021 20.4057L114.465 20.0631C114.123 22.0044 113.081 22.9751 111.368 22.9751C110.226 22.9751 109.355 22.5897 108.756 21.8189C108.156 21.0481 107.856 19.9632 107.856 18.5928C107.856 17.351 108.128 16.2946 108.656 15.4096C109.184 14.5246 110.069 14.0964 111.296 14.0964C112.239 14.0964 113.067 14.3105 113.752 14.7387L114.194 16.68L115.693 16.4945L115.251 13.7252C114.665 13.2827 114.052 12.9687 113.409 12.7974C112.767 12.6261 112.067 12.5404 111.311 12.5404C109.526 12.5404 108.17 13.1685 107.285 14.4247C106.386 15.6808 105.944 17.1083 105.944 18.6928C105.944 20.5342 106.415 21.9759 107.371 22.9894C108.313 24.0172 109.584 24.531 111.168 24.531C112.753 24.531 113.923 24.0885 114.665 23.2178C115.408 22.3328 115.864 21.4049 116.021 20.4057Z" fill="#292F36"/>
<path d="M8.12018 45.7287C7.79187 46.3282 7.30652 46.7993 6.67844 47.1276C6.03608 47.4559 5.27952 47.6272 4.3945 47.6272H1.83935V39.5764H4.3945C5.27952 39.5764 6.05036 39.7334 6.67844 40.0617C7.30652 40.39 7.79187 40.8468 8.12018 41.4606C8.44849 42.0744 8.60551 42.7739 8.60551 43.6018C8.60551 44.4154 8.44849 45.1292 8.12018 45.7287ZM6.70697 45.8857C7.26368 45.3433 7.53492 44.5867 7.53492 43.6018C7.53492 42.6168 7.26368 41.8603 6.70697 41.3179C6.15026 40.7754 5.35089 40.5042 4.29457 40.5042H2.85287V46.6994H4.29457C5.35089 46.6994 6.15026 46.4281 6.70697 45.8857Z" fill="#292F36"/>
<path d="M13.9014 40.4186V43.1735H16.9561V43.9729H13.9014V46.785H17.2987V47.6272H12.8593V39.5764H17.2987V40.4186H13.9014Z" fill="#292F36"/>
<path d="M26.3202 46.5995C26.1346 46.9278 25.8634 47.1991 25.4923 47.3989C25.1211 47.5987 24.6643 47.7129 24.1076 47.7129C23.5795 47.7129 23.0941 47.613 22.6802 47.4274C22.2662 47.2276 21.9379 46.9707 21.681 46.6281C21.4383 46.2855 21.2956 45.9001 21.2527 45.4718H22.3661C22.3947 45.7002 22.4661 45.9286 22.5945 46.1427C22.723 46.3569 22.9228 46.5424 23.1655 46.6852C23.4082 46.8279 23.708 46.8993 24.0648 46.8993C24.5216 46.8993 24.8785 46.7851 25.1212 46.5282C25.3638 46.2712 25.4923 45.9714 25.4923 45.586C25.4923 45.2577 25.4066 44.9865 25.2353 44.7867C25.064 44.5868 24.8499 44.4155 24.6073 44.3013C24.3646 44.1871 24.0077 44.0587 23.5795 43.9159C23.0656 43.7446 22.6659 43.5876 22.3519 43.4449C22.0379 43.3021 21.7809 43.0737 21.5668 42.7739C21.3526 42.4742 21.2385 42.0888 21.2385 41.6034C21.2385 41.1895 21.3384 40.8183 21.5382 40.49C21.7381 40.176 22.0236 39.919 22.409 39.7477C22.7801 39.5765 23.2369 39.4908 23.7365 39.4908C24.5216 39.4908 25.1639 39.6764 25.6207 40.0618C26.0918 40.4472 26.3487 40.9325 26.4344 41.5321H25.321C25.2639 41.218 25.0926 40.9325 24.8356 40.6899C24.5644 40.4472 24.2076 40.3187 23.7508 40.3187C23.3368 40.3187 22.9942 40.4329 22.7516 40.647C22.4946 40.8612 22.3804 41.1752 22.3804 41.5606C22.3804 41.8747 22.4661 42.1316 22.6231 42.3172C22.7944 42.517 22.9942 42.6597 23.2369 42.7739C23.4796 42.8881 23.8221 43.0023 24.2361 43.1451C24.75 43.3164 25.164 43.4734 25.4923 43.6304C25.8063 43.7874 26.0775 44.0158 26.2916 44.3156C26.5058 44.6154 26.62 45.0293 26.62 45.5432C26.5914 45.9143 26.5058 46.2712 26.3202 46.5995Z" fill="#292F36"/>
<path d="M31.8873 39.5764V47.6272H30.8452V39.5764H31.8873Z" fill="#292F36"/>
<path d="M42.4219 40.1902C43.0642 40.6613 43.4925 41.2894 43.7066 42.0888H42.6075C42.4219 41.6034 42.0936 41.2037 41.6511 40.9182C41.2085 40.6185 40.6804 40.4757 40.0666 40.4757C39.5242 40.4757 39.0245 40.6042 38.5963 40.8611C38.168 41.1181 37.8255 41.475 37.5686 41.946C37.3259 42.4171 37.1974 42.9738 37.1974 43.6161C37.1974 44.2728 37.3259 44.8437 37.5686 45.3148C37.8112 45.7859 38.1681 46.157 38.6106 46.4139C39.0531 46.6709 39.567 46.7994 40.1522 46.7994C40.6518 46.7994 41.0943 46.6852 41.5083 46.4853C41.9223 46.2712 42.2506 45.9572 42.5218 45.5575C42.793 45.1578 42.9358 44.6724 42.9929 44.13H39.8239V43.3592H43.8636V44.3156C43.7922 44.9579 43.5924 45.5289 43.2641 46.0571C42.9358 46.5852 42.4933 46.9849 41.9366 47.2847C41.3799 47.5845 40.7517 47.7415 40.038 47.7415C39.2672 47.7415 38.582 47.5702 37.9825 47.2276C37.383 46.885 36.9262 46.3997 36.5979 45.7716C36.2695 45.1578 36.0982 44.4441 36.0982 43.6447C36.0982 42.8453 36.2695 42.1316 36.5979 41.5178C36.9262 40.904 37.3972 40.4044 37.9825 40.0618C38.5677 39.7192 39.2529 39.5336 40.0237 39.5336C40.9944 39.5051 41.7795 39.7335 42.4219 40.1902Z" fill="#292F36"/>
<path d="M54.3982 47.6272H53.3562L49.1737 41.2608V47.6272H48.1317V39.5764H49.1737L53.3562 45.9428V39.5764H54.3982V47.6272Z" fill="#292F36"/>
<path d="M69.415 46.5995C69.2295 46.9278 68.9582 47.1991 68.5871 47.3989C68.216 47.5987 67.7592 47.7129 67.2025 47.7129C66.6743 47.7129 66.189 47.613 65.775 47.4274C65.3611 47.2276 65.0328 46.9707 64.7758 46.6281C64.5331 46.2855 64.3904 45.9001 64.3476 45.4718H65.461C65.4895 45.7002 65.5609 45.9286 65.6894 46.1427C65.8179 46.3569 66.0177 46.5424 66.2603 46.6852C66.503 46.8279 66.8028 46.8993 67.1596 46.8993C67.6164 46.8993 67.9733 46.7851 68.2159 46.5282C68.4586 46.2712 68.5871 45.9714 68.5871 45.586C68.5871 45.2577 68.5015 44.9865 68.3302 44.7867C68.1589 44.5868 67.9447 44.4155 67.7021 44.3013C67.4594 44.1871 67.1026 44.0587 66.6744 43.9159C66.1605 43.7446 65.7607 43.5876 65.4467 43.4449C65.1326 43.3021 64.8757 43.0737 64.6616 42.7739C64.4475 42.4742 64.3333 42.0888 64.3333 41.6034C64.3333 41.1895 64.4332 40.8183 64.633 40.49C64.8329 40.176 65.1184 39.919 65.5038 39.7477C65.875 39.5765 66.3317 39.4908 66.8314 39.4908C67.6165 39.4908 68.2588 39.6764 68.7156 40.0618C69.1867 40.4472 69.4436 40.9325 69.5293 41.5321H68.4158C68.3587 41.218 68.1874 40.9325 67.9304 40.6899C67.6592 40.4472 67.3024 40.3187 66.8456 40.3187C66.4317 40.3187 66.0891 40.4329 65.8464 40.647C65.5895 40.8612 65.4753 41.1752 65.4753 41.5606C65.4753 41.8747 65.5609 42.1316 65.7179 42.3172C65.8892 42.517 66.089 42.6597 66.3317 42.7739C66.5744 42.8881 66.917 43.0023 67.3309 43.1451C67.8448 43.3164 68.2588 43.4734 68.5871 43.6304C68.9011 43.7874 69.1723 44.0158 69.3865 44.3156C69.6006 44.6154 69.7148 45.0293 69.7148 45.5432C69.6862 45.9143 69.6006 46.2712 69.415 46.5995Z" fill="#292F36"/>
<path d="M78.8791 39.5764V40.4186H76.6094V47.6272H75.5531V40.4186H73.2834V39.5764H78.8791Z" fill="#292F36"/>
<path d="M83.7324 39.5764V44.4011C83.7324 45.1862 83.9036 45.7715 84.2605 46.1569C84.6174 46.5281 85.0885 46.7279 85.7165 46.7279C86.3303 46.7279 86.8014 46.5423 87.144 46.1569C87.4866 45.7715 87.6579 45.2005 87.6579 44.4154V39.5906H88.7V44.4154C88.7 45.5146 88.4287 46.3425 87.8863 46.8849C87.3439 47.4416 86.6158 47.7128 85.7022 47.7128C84.803 47.7128 84.075 47.4416 83.5326 46.8849C82.9901 46.3282 82.7189 45.5146 82.7189 44.4154V39.5906H83.7324V39.5764Z" fill="#292F36"/>
<path d="M99.4486 45.7287C99.1203 46.3282 98.635 46.7993 98.0069 47.1276C97.3645 47.4559 96.608 47.6272 95.723 47.6272H93.1679V39.5764H95.723C96.608 39.5764 97.3788 39.7334 98.0069 40.0617C98.635 40.39 99.1203 40.8468 99.4486 41.4606C99.7769 42.0744 99.934 42.7739 99.934 43.6018C99.934 44.4154 99.7769 45.1292 99.4486 45.7287ZM98.0498 45.8857C98.6065 45.3433 98.8777 44.5867 98.8777 43.6018C98.8777 42.6168 98.6065 41.8603 98.0498 41.3179C97.493 40.7754 96.6937 40.5042 95.6374 40.5042H94.1956V46.6994H95.6374C96.6794 46.6994 97.493 46.4281 98.0498 45.8857Z" fill="#292F36"/>
<path d="M105.244 39.5764V47.6272H104.202V39.5764H105.244Z" fill="#292F36"/>
<path d="M115.465 40.0047C116.064 40.3615 116.535 40.8469 116.878 41.4749C117.22 42.103 117.392 42.8168 117.392 43.6019C117.392 44.387 117.22 45.1007 116.878 45.7288C116.535 46.3568 116.064 46.8422 115.465 47.199C114.865 47.5559 114.194 47.7272 113.452 47.7272C112.71 47.7272 112.025 47.5559 111.425 47.199C110.825 46.8422 110.34 46.3568 109.998 45.7288C109.655 45.1007 109.484 44.387 109.484 43.6019C109.484 42.8168 109.655 42.103 109.998 41.4749C110.34 40.8469 110.811 40.3615 111.425 40.0047C112.039 39.6478 112.71 39.4765 113.452 39.4765C114.194 39.4765 114.865 39.6478 115.465 40.0047ZM111.953 40.8326C111.511 41.0895 111.168 41.4464 110.925 41.9317C110.683 42.4028 110.554 42.9595 110.554 43.6019C110.554 44.2299 110.683 44.7866 110.925 45.272C111.168 45.7573 111.511 46.1142 111.953 46.3711C112.396 46.6281 112.881 46.7565 113.438 46.7565C113.98 46.7565 114.48 46.6281 114.922 46.3711C115.365 46.1142 115.707 45.743 115.95 45.272C116.193 44.8009 116.321 44.2442 116.321 43.6161C116.321 42.9738 116.193 42.4171 115.95 41.946C115.707 41.475 115.365 41.1038 114.922 40.8469C114.48 40.5899 113.994 40.4615 113.438 40.4615C112.895 40.4472 112.396 40.5756 111.953 40.8326Z" fill="#292F36"/>
</svg>
