<svg width="164" height="44" viewBox="0 0 164 44" fill="none" xmlns="http://www.w3.org/2000/svg">
<path d="M35.3997 43.548H8.58142C4.17427 43.548 0.602539 39.9763 0.602539 35.5691V8.75086C0.602539 4.34371 4.17427 0.771973 8.58142 0.771973H35.3997C39.8068 0.771973 43.3786 4.34371 43.3786 8.75086V35.5691C43.3786 39.9763 39.8068 43.548 35.3997 43.548Z" fill="#292F36"/>
<path d="M29.697 22.5535C30.4598 23.51 30.8472 24.6239 30.8472 25.883C30.8472 27.7355 30.2297 29.1884 28.9948 30.2176C27.7598 31.2467 25.9921 31.7794 23.6917 31.7794H13.6424V10.1674H23.4495C25.6531 10.1674 27.3482 10.6517 28.5468 11.6082C29.7454 12.5647 30.3508 13.9329 30.3508 15.7006C30.3508 17.0082 29.9997 18.0858 29.3096 18.9575C28.6194 19.8293 27.7114 20.3862 26.5854 20.6526C27.9051 20.9674 28.9342 21.597 29.697 22.5535ZM18.8607 19.006H22.2872C24.1033 19.006 25.0114 18.2311 25.0114 16.6813C25.0114 15.1315 24.0791 14.3566 22.2266 14.3566H18.8607V19.006ZM25.4957 25.1566C25.4957 24.3817 25.2414 23.7763 24.7329 23.3405C24.2244 22.9046 23.4979 22.6867 22.5657 22.6867H18.8728V27.5418H22.602C24.5271 27.5297 25.4957 26.7427 25.4957 25.1566Z" fill="white"/>
<path d="M68.1627 31.7794L63.4892 23.6189H62.3027V31.7794H57.0722V10.1674H65.9955C67.7027 10.1674 69.1556 10.458 70.33 11.0513C71.5165 11.6446 72.4004 12.4558 72.9937 13.4849C73.5869 14.514 73.8775 15.6885 73.8775 17.0203C73.8775 18.5943 73.4416 19.9261 72.582 21.0279C71.7103 22.1297 70.4632 22.8804 68.8044 23.292L73.938 31.7915H68.1627V31.7794ZM62.3027 20.0472H65.5354C66.5766 20.0472 67.3394 19.8172 67.8237 19.3571C68.308 18.897 68.5623 18.219 68.5623 17.323C68.5623 16.4634 68.308 15.7974 67.8116 15.301C67.3152 14.8167 66.5524 14.5625 65.5354 14.5625H62.3027V20.0472Z" fill="#292F36"/>
<path d="M97.5357 27.8445H89.4357L88.0918 31.7916H82.5949L90.5133 10.337H96.5308L104.449 31.7916H98.8917L97.5357 27.8445ZM96.1917 23.8611L93.5039 15.9185L90.7797 23.8611H96.1917Z" fill="#292F36"/>
<path d="M133.301 31.7795H128.071L119.329 18.5096V31.7795H114.099V10.1675H119.329L128.071 23.5584V10.1675H133.301V31.7795Z" fill="#292F36"/>
<path d="M162.626 26.5732C161.718 28.2077 160.41 29.4911 158.715 30.4113C157.008 31.3315 155.01 31.7916 152.71 31.7916H144.549V10.1796H152.71C155.034 10.1796 157.044 10.6276 158.727 11.5235C160.422 12.4195 161.718 13.6787 162.626 15.3132C163.534 16.9477 163.982 18.8123 163.982 20.9432C163.982 23.0499 163.522 24.9266 162.626 26.5732ZM156.996 25.4835C158.122 24.4059 158.691 22.8804 158.691 20.9311C158.691 18.9697 158.122 17.4562 156.996 16.3786C155.87 15.3011 154.284 14.7562 152.238 14.7562H149.768V27.1059H152.238C154.284 27.1059 155.87 26.5732 156.996 25.4835Z" fill="#292F36"/>
</svg>
